<?xml version="1.0" encoding="UTF-8"?>
<svg version="1.1" xmlns="http://www.w3.org/2000/svg" width="1013" height="1012">
    <path
        d="M0 0 C1.28953583 -0.00705963 2.57907166 -0.01411926 3.90768433 -0.02139282 C8.04653496 -0.04091038 12.1853264 -0.04608491 16.32421875 -0.046875 C17.38301428 -0.04731686 17.38301428 -0.04731686 18.46319962 -0.04776764 C39.78000678 -0.04920472 60.86679343 0.15212111 82.01171875 3.203125 C82.71119629 3.30258423 83.41067383 3.40204346 84.13134766 3.5045166 C151.52601992 13.13709947 216.260979 34.57375727 275.01171875 69.203125 C275.81689941 69.6760498 276.62208008 70.14897461 277.45166016 70.63623047 C293.61446009 80.17943052 309.17518727 90.70380791 324.01171875 102.203125 C324.82817871 102.83250977 324.82817871 102.83250977 325.66113281 103.47460938 C337.60938849 112.69664334 349.12134908 122.33316214 360.1875 132.59765625 C362.72527969 134.93887209 365.29810236 137.23105491 367.88671875 139.515625 C376.48252588 147.23657615 384.85887042 155.41050685 392.32421875 164.23828125 C394.4064253 166.6627023 396.58674082 168.98662532 398.76171875 171.328125 C403.50604948 176.53112215 407.856046 181.96992334 412.16015625 187.5390625 C414.07067959 190.00940747 416.01254916 192.44868548 417.98828125 194.8671875 C425.1692209 203.66468113 431.74329868 212.73538594 438.01171875 222.203125 C438.46933594 222.89164551 438.92695312 223.58016602 439.3984375 224.28955078 C488.44430662 298.32202339 517.09608912 382.1651645 524.21484375 488.34765625 C524.22190338 489.66353729 524.22896301 490.97941833 524.23623657 492.33517456 C524.25577666 496.56199699 524.26092872 500.78876164 524.26171875 505.015625 C524.26216061 506.09582602 524.26216061 506.09582602 524.26261139 507.19784927 C524.26400978 528.3456074 524.09174444 549.23314618 521.01171875 570.203125 C520.80522595 571.66383787 520.59919424 573.12461598 520.39355469 574.58544922 C513.34829123 624.05460758 499.84865731 671.72677491 479.01171875 717.203125 C478.55571289 718.20021484 478.09970703 719.19730469 477.62988281 720.22460938 C467.3797791 742.46951529 455.74819853 763.91290376 442.01171875 784.203125 C441.3455957 785.19699219 441.3455957 785.19699219 440.66601562 786.2109375 C429.94458963 802.19280416 418.31328256 817.40856587 406.01171875 832.203125 C405.5223584 832.79303223 405.03299805 833.38293945 404.52880859 833.99072266 C390.91028417 850.3375606 376.28237459 866.64347096 360.046875 880.4453125 C357.60343837 882.5557664 355.25253054 884.75605379 352.88671875 886.953125 C347.09722906 892.2315425 340.99835402 897.03470429 334.796875 901.81640625 C333.05412491 903.17018367 331.32749604 904.54186698 329.60546875 905.921875 C257.91606935 963.26720729 169.27572892 998.56058404 78.38671875 1009.515625 C77.71138092 1009.59702728 77.03604309 1009.67842957 76.34024048 1009.76229858 C62.57795815 1011.39661311 48.88765858 1012.35544913 35.0234375 1012.40625 C33.73390167 1012.41330963 32.44436584 1012.42036926 31.11575317 1012.42764282 C26.97690254 1012.44716038 22.8381111 1012.45233491 18.69921875 1012.453125 C17.64042322 1012.45356686 17.64042322 1012.45356686 16.56023788 1012.45401764 C-4.75656928 1012.45545472 -25.84335593 1012.25412889 -46.98828125 1009.203125 C-47.68775879 1009.10366577 -48.38723633 1009.00420654 -49.10791016 1008.9017334 C-116.50258242 999.26915053 -181.2375415 977.83249273 -239.98828125 943.203125 C-241.19605225 942.49373779 -241.19605225 942.49373779 -242.42822266 941.77001953 C-258.59102259 932.22681948 -274.15174977 921.70244209 -288.98828125 910.203125 C-289.53258789 909.78353516 -290.07689453 909.36394531 -290.63769531 908.93164062 C-302.58595099 899.70960666 -314.09791158 890.07308786 -325.1640625 879.80859375 C-327.70184219 877.46737791 -330.27466486 875.17519509 -332.86328125 872.890625 C-341.45908838 865.16967385 -349.83543292 856.99574315 -357.30078125 848.16796875 C-359.3829878 845.7435477 -361.56330332 843.41962468 -363.73828125 841.078125 C-368.48261198 835.87512785 -372.8326085 830.43632666 -377.13671875 824.8671875 C-379.04724209 822.39684253 -380.98911166 819.95756452 -382.96484375 817.5390625 C-390.1457834 808.74156887 -396.71986118 799.67086406 -402.98828125 790.203125 C-403.44589844 789.51460449 -403.90351563 788.82608398 -404.375 788.11669922 C-447.09316195 723.63560812 -474.44241407 651.78695039 -485.23828125 575.203125 C-485.46499512 573.59715454 -485.46499512 573.59715454 -485.69628906 571.95874023 C-486.17211189 568.37798546 -486.59391477 564.79354804 -486.98828125 561.203125 C-487.11908585 560.0408992 -487.11908585 560.0408992 -487.25253296 558.85519409 C-489.14855599 541.50698995 -489.34855821 524.19848997 -489.30078125 506.765625 C-489.29855915 505.33271288 -489.29638262 503.89980069 -489.29425049 502.46688843 C-489.25253318 482.23530218 -488.93427402 462.26055709 -485.98828125 442.203125 C-485.78178845 440.74241213 -485.57575674 439.28163402 -485.37011719 437.82080078 C-478.32485373 388.35164242 -464.82521981 340.67947509 -443.98828125 295.203125 C-443.53227539 294.20603516 -443.07626953 293.20894531 -442.60644531 292.18164062 C-432.3563416 269.93673471 -420.72476103 248.49334624 -406.98828125 228.203125 C-406.54419922 227.54054687 -406.10011719 226.87796875 -405.64257812 226.1953125 C-394.92115213 210.21344584 -383.28984506 194.99768413 -370.98828125 180.203125 C-370.4989209 179.61321777 -370.00956055 179.02331055 -369.50537109 178.41552734 C-355.88684667 162.0686894 -341.25893709 145.76277904 -325.0234375 131.9609375 C-322.58000087 129.8504836 -320.22909304 127.65019621 -317.86328125 125.453125 C-312.07379156 120.1747075 -305.97491652 115.37154571 -299.7734375 110.58984375 C-298.03068741 109.23606633 -296.30405854 107.86438302 -294.58203125 106.484375 C-222.89263185 49.13904271 -134.25229142 13.84566596 -43.36328125 2.890625 C-42.68794342 2.80922272 -42.01260559 2.72782043 -41.31680298 2.64395142 C-27.55452065 1.00963689 -13.86422108 0.05080087 0 0 Z "
        fill="#1B263A" transform="translate(488.98828125,-0.203125)" />
    <path
        d="M0 0 C2.50322225 1.18517741 4.37885493 2.30493201 6.5625 4.0625 C8.92026019 6.16384349 8.92026019 6.16384349 12 7 C12.75152344 7.75667969 13.50304687 8.51335938 14.27734375 9.29296875 C17.13521889 12.13444289 20.15437146 14.21690386 23.5625 16.3125 C24.81190524 17.09522626 26.0605913 17.87910154 27.30859375 18.6640625 C27.92976074 19.05368164 28.55092773 19.44330078 29.19091797 19.84472656 C31.87949343 21.56164142 34.49679581 23.37996036 37.125 25.1875 C41.89040527 28.3812683 46.74968554 31.01303723 51.91796875 33.4921875 C55.25538311 35.12494028 58.49652854 36.89377525 61.75 38.6875 C66.44417544 41.23576667 70.96807785 43.23882725 76 45 C77.33833596 45.59300252 78.67134171 46.19812041 80 46.8125 C84.27008429 48.7399686 88.61538933 50.41776164 93 52.0625 C93.97839844 52.43048706 93.97839844 52.43048706 94.9765625 52.8059082 C103.1983863 55.86350129 111.38591454 58.46393342 119.9375 60.4375 C120.84991455 60.64995361 121.7623291 60.86240723 122.70239258 61.08129883 C124.57131968 61.5151598 126.44070333 61.94705898 128.31054688 62.37695312 C131.44772471 63.10372127 134.57772427 63.85819369 137.70605469 64.62207031 C154.76635869 68.50948315 171.66244374 69.40474131 189.125 69.375 C190.11046814 69.37578552 191.09593628 69.37657104 192.11126709 69.37738037 C206.25098748 69.36390168 219.76166812 68.70599632 233.59521484 65.53442383 C237.19462924 64.73451336 240.82253779 64.10890641 244.45166016 63.45996094 C252.23663626 62.05481675 259.96043091 60.54141806 267.41796875 57.87109375 C270.22820264 56.92301182 273.06912137 56.11653265 275.9230957 55.31152344 C284.88993212 52.77030669 293.42020865 49.64292765 302 46 C303.09183594 45.54109375 304.18367188 45.0821875 305.30859375 44.609375 C319.30058498 38.58893211 332.9069432 31.77938742 346 24 C346.74942871 23.55479004 347.49885742 23.10958008 348.27099609 22.65087891 C356.38242149 17.80746226 364.42869716 12.92950334 372.0546875 7.33984375 C374 6 374 6 376.0078125 5.00390625 C378.21790061 3.89019518 380.03910086 2.50270935 382 1 C382.18708748 16.00335065 382.32805507 31.00661073 382.41449738 46.01088047 C382.45570588 52.97810987 382.51186004 59.9446135 382.60351562 66.91137695 C382.69193359 73.63526821 382.73827918 80.35825 382.75901794 87.08274651 C382.77379602 89.64767256 382.80265497 92.2125575 382.84584045 94.77716255 C382.90395353 98.37130864 382.91191123 101.9623442 382.90820312 105.55688477 C382.93696533 106.6164035 382.96572754 107.67592224 382.99536133 108.76754761 C382.91626906 115.85640948 382.91626906 115.85640948 380.28318787 119.14274406 C378.26604526 120.91620439 376.19234449 122.45223977 374 124 C369.33291825 128.26150695 365.44501897 132.89739111 361.62890625 137.92578125 C359.60758949 140.4996882 357.37570179 142.75271452 355 145 C353.9171875 146.1446875 353.9171875 146.1446875 352.8125 147.3125 C351 149 351 149 349 149 C348.77054687 149.55300781 348.54109375 150.10601563 348.3046875 150.67578125 C346.0775429 154.64329932 342.67735087 157.62443188 339.5078125 160.85546875 C332.80293274 168.68281971 332.44149313 176.88137603 332.53125 186.84375 C332.52640743 188.18022667 332.51923887 189.51669669 332.5098877 190.85314941 C332.48051648 195.77433282 332.49328654 200.69522961 332.50506592 205.61645508 C332.58770159 246.94387434 332.58770159 246.94387434 325 256 C323.92951731 257.85869881 322.88886808 259.73482383 321.875 261.625 C321.35679687 262.58664062 320.83859375 263.54828125 320.3046875 264.5390625 C319.5207196 266.01780434 318.74850292 267.50299416 318 269 C317.34 269 316.68 269 316 269 C315.04738513 273.76307437 314.91666643 278.1666528 315 283 C317.43230257 282.88037553 317.43230257 282.88037553 320 282 C321.48734725 279.86127487 321.48734725 279.86127487 322.4375 277.125 C324.07740614 273.16061632 325.79410495 269.37833855 327.875 265.625 C328.37128906 264.7278125 328.86757813 263.830625 329.37890625 262.90625 C330.55278747 260.80174969 331.72735463 258.69763195 332.90234375 256.59375 C333.53269531 255.4490625 334.16304688 254.304375 334.8125 253.125 C335.39644531 252.07570313 335.98039062 251.02640625 336.58203125 249.9453125 C338.94620543 245.03460359 339.11953287 240.63268949 339.09423828 235.2253418 C339.09145342 233.8564201 339.08878332 232.48749817 339.08621216 231.11857605 C339.08316196 230.39877249 339.08011177 229.67896893 339.07696915 228.93735313 C339.06555452 225.09946334 339.08614299 221.26168727 339.1015625 217.42382812 C339.11983151 212.55194415 339.12855327 207.6806941 339.09960938 202.80883789 C339.07699487 198.86036406 339.08859237 194.91325986 339.12261581 190.9648838 C339.12935661 189.46710414 339.12378329 187.9692131 339.10525894 186.47153282 C338.95302581 173.31687477 338.95302581 173.31687477 343.42675781 168.16601562 C344.59339769 167.08371986 345.78155934 166.0236284 347 165 C347.67289062 164.22269531 348.34578125 163.44539062 349.0390625 162.64453125 C352.23566724 158.95190164 355.50054599 155.41196766 359 152 C364.7127397 146.42524919 369.95723803 140.55173306 375.1484375 134.4921875 C375.86257813 133.66976562 376.57671875 132.84734375 377.3125 132 C378.29669922 130.8553125 378.29669922 130.8553125 379.30078125 129.6875 C381 128 381 128 383 128 C383.07000853 138.26744184 383.12306635 148.5348254 383.15543652 158.80245876 C383.17098519 163.5719245 383.1920219 168.34122501 383.22631836 173.1105957 C383.25930236 177.72719471 383.2769338 182.34363642 383.28463173 186.96034431 C383.29010614 188.70749444 383.30079229 190.45463754 383.31719017 192.20171928 C383.46998598 209.18144102 380.64137585 224.735758 376.25 241.125 C376.07670166 241.77365021 375.90340332 242.42230042 375.72485352 243.09060669 C373.05958431 252.98585916 369.94550517 262.00915836 365 271 C364.34041252 272.27562356 363.68429468 273.5530458 363.03125 274.83203125 C353.30147464 293.73210226 340.60802728 309.65697764 326 325 C325.30390625 325.73734375 324.6078125 326.4746875 323.890625 327.234375 C312.44655647 339.04465373 298.03752575 349.66873829 283.0390625 356.48828125 C280.3394815 357.83113195 277.89535609 359.31001114 275.34765625 360.9140625 C270.05128929 364.12113186 264.69203418 366.17632631 258.8125 368.0625 C257.78165283 368.39975098 256.75080566 368.73700195 255.6887207 369.08447266 C245.8067355 372.22549737 235.77964875 374.57091812 225.5949707 376.49633789 C223.93303022 376.81890664 222.27658133 377.17219287 220.62963867 377.56420898 C211.7710302 379.52455637 202.81421772 379.33662863 193.78735352 379.31567383 C190.96786059 379.31253381 188.14944051 379.33596396 185.33007812 379.36132812 C169.32127805 379.41648945 154.46280323 377.16149322 139 373 C137.87851562 372.73703125 136.75703125 372.4740625 135.6015625 372.203125 C104.76306425 364.70720005 76.99981652 346.56391438 55 324 C54.36964844 323.40316406 53.73929688 322.80632812 53.08984375 322.19140625 C35.29939529 305.09123974 22.93452936 283.37700428 13 261 C12.25363281 259.36998047 12.25363281 259.36998047 11.4921875 257.70703125 C9.52577369 252.82188279 8.02161578 247.86925823 6.5625 242.8125 C6.27568359 241.88630859 5.98886719 240.96011719 5.69335938 240.00585938 C-1.49603902 215.01109124 -1.54613439 189.59533957 -1.2746582 163.84667969 C-1.23288192 159.44734701 -1.21529209 155.04791358 -1.1953125 150.6484375 C-1.15309796 142.09869409 -1.08532975 133.54942168 -1 125 C0.12156015 125.94940297 1.24143335 126.90079901 2.3605957 127.85302734 C2.98440628 128.38262054 3.60821686 128.91221375 4.25093079 129.45785522 C6.41852783 131.3690137 8.3030546 133.43588379 10.1875 135.625 C15.5323337 141.68492295 21.2536051 147.32583632 27 153 C27.84691406 153.84820313 28.69382813 154.69640625 29.56640625 155.5703125 C31.16213544 157.16348033 32.76861327 158.74597 34.38671875 160.31640625 C35.14597656 161.05761719 35.90523437 161.79882812 36.6875 162.5625 C37.45449219 163.30628906 38.22148437 164.05007813 39.01171875 164.81640625 C42.11691843 168.22663537 43.2437909 170.89562248 43.28710938 175.4987793 C43.30052368 176.38458176 43.31393799 177.27038422 43.32775879 178.18302917 C43.33303589 179.13712173 43.33831299 180.09121429 43.34375 181.07421875 C43.3583728 182.07145462 43.37299561 183.06869049 43.38806152 184.09614563 C43.43453433 187.29322241 43.46867086 190.49024124 43.5 193.6875 C43.93875961 239.5543648 43.93875961 239.5543648 63.7109375 279.8984375 C64.13632813 280.26195312 64.56171875 280.62546875 65 281 C67.68218645 280.04825642 68.77537237 279.42429664 70.125 276.875 C69.95274123 272.91304829 68.11514324 271.23383304 65.68359375 268.20703125 C53.46446756 252.18891919 50.8377226 229.03900809 50.9296875 209.58984375 C50.9211087 207.19465417 50.91063483 204.79947076 50.8984375 202.40429688 C50.88171671 198.66252786 50.87510368 194.92215821 50.90039062 191.18041992 C50.92137726 187.54520015 50.89811519 183.91244584 50.8671875 180.27734375 C50.88457977 179.16568344 50.90197205 178.05402313 50.91989136 176.90867615 C50.81426136 170.07984411 49.7072847 166.44313202 44.78533936 161.61248779 C44.19617737 161.08036682 43.60701538 160.54824585 43 160 C42.02457785 159.00004585 41.05291088 157.99640781 40.0859375 156.98828125 C39.19132812 156.10527344 38.29671875 155.22226562 37.375 154.3125 C36.47523438 153.42175781 35.57546875 152.53101563 34.6484375 151.61328125 C33.77445313 150.75089844 32.90046875 149.88851562 32 149 C30.33333333 147.33333333 28.66666667 145.66666667 27 144 C26.01386719 143.03126953 26.01386719 143.03126953 25.0078125 142.04296875 C21.18623374 138.2768901 17.54706803 134.45903265 14.15997314 130.29547119 C12.01346739 127.86529375 12.01346739 127.86529375 9.04998779 125.89324951 C4.48881162 122.50725179 0.77098688 119.01694389 -0.6736908 113.36378479 C-1.71704719 105.42851772 -1.37559154 97.4334907 -1.171875 89.453125 C-1.14946617 86.86956744 -1.13239755 84.28595854 -1.12042236 81.70233154 C-1.07946444 75.62396203 -0.98515202 69.54862414 -0.86422849 63.47139049 C-0.7294492 56.54537884 -0.66396113 49.61923205 -0.60388327 42.69223261 C-0.47891632 28.46008258 -0.26825925 14.23013514 0 0 Z "
        fill="#0E9EF9" transform="translate(146,506)" />
    <path
        d="M0 0 C2.0996083 0.00502803 4.19921777 0.00958862 6.29882812 0.01367188 C11.38674832 0.02456733 16.47461081 0.04175915 21.5625 0.0625 C21.5625 0.7225 21.5625 1.3825 21.5625 2.0625 C22.51125 2.10375 23.46 2.145 24.4375 2.1875 C37.60736243 4.12190635 49.68141913 17.75220003 59.10546875 26.39453125 C59.97816406 27.19246094 60.85085938 27.99039063 61.75 28.8125 C62.54792969 29.54984375 63.34585938 30.2871875 64.16796875 31.046875 C66.52085589 33.02744558 68.91715663 34.50797435 71.5625 36.0625 C73.22916667 37.72916667 74.89583333 39.39583333 76.5625 41.0625 C90.69878756 53.0462165 106.5372663 63.74747563 123.5625 71.0625 C123.5625 71.7225 123.5625 72.3825 123.5625 73.0625 C124.119375 73.18109375 124.67625 73.2996875 125.25 73.421875 C127.84807147 74.14161102 130.12272166 75.16522328 132.5625 76.3125 C140.91838899 80.16221717 149.20951314 83.8960777 158.11328125 86.2890625 C161.36702183 87.31655952 164.42918597 88.71385675 167.5625 90.0625 C176.05026868 93.15550045 184.69865397 95.74474937 193.375 98.25 C194.23367676 98.49983643 195.09235352 98.74967285 195.97705078 99.00708008 C200.16422386 100.19841807 204.32431421 101.24725207 208.6015625 102.0625 C213.55547638 103.01281105 218.3115586 104.37906076 223.125 105.875 C224.87883252 106.40909635 226.63274007 106.94294635 228.38671875 107.4765625 C230.1120382 108.00501564 231.8373006 108.53365507 233.5625 109.0625 C241.66474787 111.5412314 249.68402598 113.95642269 258 115.625 C263.87913282 116.82098359 269.084219 118.65894956 274.5625 121.0625 C276.22681021 121.73502787 277.89351997 122.4016461 279.5625 123.0625 C280.34165771 123.37614502 281.12081543 123.68979004 281.92358398 124.01293945 C283.58132939 124.67226478 285.24460561 125.31801533 286.9152832 125.94384766 C292.92337658 128.23000989 298.32591504 130.99564449 303.75 134.4375 C304.97058105 135.21154175 304.97058105 135.21154175 306.21582031 136.0012207 C334.27270642 154.36318632 347.23891829 181.1916308 354.5625 213.0625 C358.08624637 230.88996123 357.83315512 249.10060487 357.8125 267.1875 C357.81133682 268.90995438 357.81133682 268.90995438 357.81015015 270.66720581 C357.74841061 302.28263898 357.74841061 302.28263898 356.09403992 313.13571167 C354.41398745 324.24836101 354.19758765 335.17778451 354.11328125 346.3984375 C354.09198146 348.41485284 354.07001209 350.4312612 354.04740906 352.44766235 C354.00236788 356.63792716 353.96346863 360.82818625 353.92944336 365.01855469 C353.88550825 370.40009183 353.82876494 375.78140183 353.7678957 381.16277122 C353.72187774 385.30952415 353.68102482 389.4563145 353.64192772 393.60313797 C353.62285017 395.58957805 353.60248875 397.57600622 353.58083534 399.56241989 C353.5518429 402.31942969 353.52944879 405.07641125 353.5090332 407.83349609 C353.49922928 408.65725235 353.48942535 409.48100861 353.47932434 410.32972717 C353.46868627 412.24082296 353.50984682 414.15210006 353.5625 416.0625 C355.0701726 417.5701726 356.55645289 417.39779733 358.65625 417.640625 C373.6216027 419.49512521 387.97433241 422.23559455 401.5625 429.0625 C402.79775127 429.65713537 404.03347589 430.25078789 405.26953125 430.84375 C417.34500062 436.69273819 428.33525222 443.30701475 438.5625 452.0625 C439.06539551 452.49159668 439.56829102 452.92069336 440.08642578 453.36279297 C456.1902575 467.24236561 467.51810244 483.87741426 476.5625 503.0625 C477.05943359 504.09044678 477.05943359 504.09044678 477.56640625 505.13916016 C480.16860506 510.69940358 481.83279285 516.2086001 483.1875 522.1875 C483.39914795 523.1141748 483.6107959 524.04084961 483.82885742 524.99560547 C489.1681954 548.93858316 492.01624118 579.02990432 481.48046875 602.0390625 C480.15145916 604.96853896 479.3731817 607.95488683 478.5625 611.0625 C477.9025 611.0625 477.2425 611.0625 476.5625 611.0625 C476.3975 612.25875 476.2325 613.455 476.0625 614.6875 C470.50879586 639.56183684 444.39988583 664.30258242 423.68945312 677.75488281 C419.5121981 680.32299322 415.20872571 682.64604301 410.875 684.9375 C410.02043213 685.38996094 409.16586426 685.84242188 408.28540039 686.30859375 C402.20864059 689.43055604 396.02545335 691.86215613 389.5625 694.0625 C388.43199219 694.45695313 387.30148437 694.85140625 386.13671875 695.2578125 C372.51726475 699.64405073 359.11763788 700.47102543 344.9375 700.4375 C344.14901672 700.43762085 343.36053345 700.4377417 342.54815674 700.43786621 C327.52187535 700.40512507 312.85900884 699.4283698 298.9609375 693.11328125 C295.97194317 691.80377071 292.91105141 690.83509036 289.8125 689.8125 C277.31009264 685.36478892 266.9366906 678.2496213 256.5625 670.0625 C255.66402344 669.38058594 254.76554687 668.69867187 253.83984375 667.99609375 C248.37897922 663.78719213 243.93835185 659.36574432 239.5625 654.0625 C238.72976563 653.12792969 237.89703125 652.19335938 237.0390625 651.23046875 C225.21473926 637.89214497 215.6975788 622.73316146 210.45703125 605.62890625 C209.61597916 602.87195226 209.61597916 602.87195226 207.5625 600.0625 C202.94189456 586.56408362 202.0790669 572.44310519 202.125 558.3125 C202.12514099 557.59279022 202.12528198 556.87308044 202.12542725 556.13156128 C202.15394578 547.28438088 202.77792903 538.74486612 204.5625 530.0625 C205.2225 530.0625 205.8825 530.0625 206.5625 530.0625 C206.56636719 529.14984375 206.56636719 529.14984375 206.5703125 528.21875 C207.26236613 512.53220106 215.33400701 496.44810902 224.5625 484.0625 C225.15546875 482.98226563 225.7484375 481.90203125 226.359375 480.7890625 C228.56012082 476.88979234 231.24189222 473.60759417 234.1875 470.25 C234.71456543 469.64397949 235.24163086 469.03795898 235.78466797 468.41357422 C246.42971753 456.28764152 257.80158845 446.48632863 271.5625 438.0625 C272.33980469 437.54816406 273.11710937 437.03382813 273.91796875 436.50390625 C280.73287525 432.10903355 287.98394802 429.44738877 295.58886719 426.76782227 C297.61895913 426.04232305 299.6336027 425.28238961 301.6484375 424.515625 C315.30882745 419.38010258 328.97589071 416.86844311 343.5625 417.0625 C344.56577441 412.04308604 344.72590613 407.23293709 344.75195312 402.13891602 C344.76024643 401.26170898 344.76853973 400.38450195 344.77708435 399.48071289 C344.79442519 397.58357565 344.80960803 395.68641771 344.82286072 393.78924751 C344.84398229 390.7833477 344.87099758 387.77755123 344.89953613 384.77171326 C344.95908705 378.38951568 345.01131045 372.0072694 345.0625 365.625 C345.12184409 358.23047562 345.18421746 350.83600251 345.25437927 343.44157219 C345.28084684 340.48642015 345.30172526 337.53126256 345.3223877 334.57606506 C345.33900003 332.75586703 345.35587269 330.93567134 345.37304688 329.11547852 C345.3793235 327.89099251 345.3793235 327.89099251 345.38572693 326.64176941 C345.4360262 322.02012586 345.80373709 317.62321246 346.5625 313.0625 C347.2225 313.0625 347.8825 313.0625 348.5625 313.0625 C348.55089844 312.24910156 348.53929687 311.43570312 348.52734375 310.59765625 C348.4773683 304.25077356 348.59864215 298.01817963 349.0625 291.6875 C351.22392959 259.37336113 353.77794937 216.13998744 338.0625 186.875 C336.62910124 184.14773688 335.3697602 181.56688338 334.25 178.6875 C323.48024508 155.55247092 302.22886829 141.15284853 279.5625 131.0625 C276.20904103 129.88860243 272.85147636 128.85895669 269.43359375 127.890625 C267.12151088 127.22373851 264.96965439 126.47561822 262.75 125.5625 C257.96282259 123.67664223 252.92990743 122.59960932 247.93237305 121.41992188 C242.66160516 120.16160516 242.66160516 120.16160516 241.5625 119.0625 C240.21447112 118.78127856 238.85825265 118.53925336 237.5 118.3125 C232.88062605 117.43324416 228.46522326 116.14030513 224 114.6875 C218.25748734 112.8254714 212.51333691 111.26806895 206.625 109.9375 C201.50918232 108.78074597 196.51289143 107.52473567 191.56640625 105.76953125 C186.26724226 103.89984571 180.82647185 102.42690943 175.4296875 100.8671875 C174.32077148 100.54500244 174.32077148 100.54500244 173.18945312 100.21630859 C171.72800939 99.79200826 170.26580881 99.37030291 168.80273438 98.95166016 C163.95889175 97.54396079 159.26306372 95.88887655 154.5625 94.0625 C153.85899414 93.79501953 153.15548828 93.52753906 152.43066406 93.25195312 C119.77222728 80.78734041 91.39653655 64.38353949 64.5625 42.0625 C62.70863548 40.56212659 60.85446546 39.06213059 59 37.5625 C55.41039693 34.6306509 51.92617399 31.62103037 48.5 28.5 C43.68977547 24.12498626 38.69747795 20.04863543 33.5625 16.0625 C32.94632813 15.55460938 32.33015625 15.04671875 31.6953125 14.5234375 C27.27908008 11.04336495 23.09268266 9.82642914 17.5625 9.0625 C16.95559326 8.97709961 16.34868652 8.89169922 15.72338867 8.80371094 C-15.526178 4.8275946 -56.27111744 6.4412622 -82.375 26.296875 C-96.38788298 38.39132757 -100.84160743 52.25003388 -103.4375 70.0625 C-105.4175 70.0625 -107.3975 70.0625 -109.4375 70.0625 C-110.16534595 53.34900047 -106.01700387 40.21384392 -95.40234375 27.18359375 C-82.81659614 13.59699146 -66.1075998 6.84069111 -48.4375 3 C-47.68855469 2.82662109 -46.93960938 2.65324219 -46.16796875 2.47460938 C-31.06565621 -0.79380155 -15.3603328 -0.0645341 0 0 Z "
        fill="#5490E8" transform="translate(439.4375,125.9375)" />
    <path
        d="M0 0 C1.93154944 -0.02655142 3.86372546 -0.01970494 5.79518127 0.01295471 C6.85087311 0.00725967 7.90656494 0.00156464 8.99424744 -0.00430298 C12.48789589 -0.01542738 15.97967732 0.0166842 19.47315979 0.05030823 C21.89926941 0.05388438 24.32538323 0.05524295 26.75149536 0.05447388 C31.83842441 0.05916875 36.92472015 0.08403624 42.01148987 0.12428284 C48.533051 0.17522618 55.05391533 0.18672663 61.57565212 0.18444729 C66.58653418 0.18526306 71.59726381 0.20171774 76.60809517 0.22345161 C79.01265878 0.23300093 81.41723967 0.23891134 83.82182121 0.24113274 C87.18303207 0.24763673 90.54350416 0.27389774 93.90455627 0.30592346 C94.89952621 0.3045639 95.89449615 0.30320435 96.9196167 0.30180359 C105.19969176 0.41718049 108.93256137 3.08171576 115.03956604 8.61671448 C116.45108948 9.88128479 116.45108948 9.88128479 117.89112854 11.17140198 C122.24333688 15.6044563 123.79326131 18.76192149 123.75514221 25.00074768 C123.75491562 26.24165665 123.75468903 27.48256561 123.75445557 28.76107788 C123.73913816 30.10488755 123.72349021 31.44869348 123.70753479 32.79249573 C123.70193502 34.17540018 123.69766672 35.5583106 123.69467163 36.94122314 C123.68325268 40.56961179 123.65381154 44.19763647 123.62055969 47.82588196 C123.58979476 51.5328021 123.57615263 55.23978142 123.56105042 58.9467926 C123.52893845 66.21193195 123.47777851 73.47677209 123.41456604 80.74171448 C122.7971907 80.87185944 122.17981537 81.00200439 121.54373169 81.13609314 C120.73355087 81.31065033 119.92337006 81.48520752 119.08863831 81.66505432 C118.28563797 81.83644928 117.48263763 82.00784424 116.65530396 82.18443298 C108.69285579 84.16472929 101.28942157 90.30105952 96.41456604 96.74171448 C91.25021915 105.93402692 89.287273 113.74244663 89.20924377 124.2256012 C89.19934418 125.05553085 89.18944458 125.88546051 89.179245 126.74053955 C89.14780792 129.46746527 89.12294336 132.19440837 89.09815979 134.92140198 C89.07757488 136.81855202 89.05657801 138.71569763 89.03518677 140.61283875 C88.98012485 145.59401349 88.93064584 150.57522854 88.88233948 155.55647278 C88.83200817 160.64429795 88.77638294 165.73206495 88.72120667 170.81983948 C88.61381945 180.79374807 88.51233169 190.76770726 88.41456604 200.74171448 C89.07456604 200.74171448 89.73456604 200.74171448 90.41456604 200.74171448 C90.57956604 201.99983948 90.74456604 203.25796448 90.91456604 204.55421448 C92.91526994 213.55028732 99.87872469 221.62396727 107.41456604 226.74171448 C112.74573273 229.98349463 117.14932815 231.17540501 123.41456604 232.74171448 C123.41456604 257.49171448 123.41456604 282.24171448 123.41456604 307.74171448 C112.14275595 307.74171448 112.14275595 307.74171448 107.34034729 307.04249573 C106.27115051 306.88764709 105.20195374 306.73279846 104.10035706 306.57325745 C102.98717102 306.40197327 101.87398499 306.23068909 100.72706604 306.05421448 C99.56038391 305.87777405 98.39370178 305.70133362 97.19166565 305.51954651 C89.23674709 304.27731436 81.34742081 302.8130483 73.47706604 301.11671448 C72.5190509 300.91086731 71.56103577 300.70502014 70.57398987 300.49293518 C66.52893591 299.58541694 63.11656917 298.61475454 59.41456604 296.74171448 C57.49966554 296.25888012 55.58399699 295.77863182 53.66261292 295.32228088 C49.58287942 294.26867464 45.63365385 292.83578211 41.66456604 291.42921448 C40.78566711 291.11943665 39.90676819 290.80965881 39.00123596 290.49049377 C32.37127979 288.13123726 25.85772226 285.57430947 19.41456604 282.74171448 C18.25827698 282.25444885 18.25827698 282.25444885 17.07862854 281.75733948 C10.97132464 279.14298483 5.21105248 275.97794524 -0.58543396 272.74171448 C-1.32535583 272.34081604 -2.06527771 271.9399176 -2.82762146 271.52687073 C-12.09463737 266.48602141 -21.06151501 260.95707205 -29.58543396 254.74171448 C-30.36531677 254.27894104 -31.14519958 253.8161676 -31.94871521 253.33937073 C-34.67564052 251.68705598 -37.20855586 249.88564217 -39.77293396 247.99171448 C-44.27050653 244.69146866 -48.8102442 241.46388069 -53.39402771 238.28468323 C-54.11719177 237.77550354 -54.84035583 237.26632385 -55.58543396 236.74171448 C-56.62793273 236.08753855 -56.62793273 236.08753855 -57.69149208 235.42014694 C-59.58543396 233.74171448 -59.58543396 233.74171448 -60.0832119 231.71217728 C-60.08212236 230.93062145 -60.08103283 230.14906563 -60.07991028 229.34382629 C-60.08829926 228.44423691 -60.09668823 227.54464752 -60.10533142 226.61779785 C-60.09409241 225.63291885 -60.08285339 224.64803986 -60.0712738 223.63331604 C-60.0750705 222.59383316 -60.07886719 221.55435028 -60.08277893 220.48336792 C-60.09021098 217.0327218 -60.06874717 213.58291143 -60.04637146 210.13233948 C-60.04398637 207.72875568 -60.04308185 205.32517 -60.04359436 202.92158508 C-60.04046073 197.8707876 -60.02386479 192.82027281 -59.99705505 187.76954651 C-59.96329337 181.33087052 -59.95542017 174.89250853 -59.95694542 168.45375443 C-59.95639795 163.48110516 -59.94536728 158.50852304 -59.93094254 153.5358963 C-59.92462273 151.16471108 -59.92064706 148.79351831 -59.91915512 146.42232513 C-59.89843392 130.68325475 -59.2481297 115.7328677 -55.58543396 100.36671448 C-55.42043396 99.65128479 -55.25543396 98.9358551 -55.08543396 98.19874573 C-54.75579434 96.76944892 -54.42333867 95.34079824 -54.08787537 93.91285706 C-53.5540282 91.60600437 -53.04955043 89.29371622 -52.54637146 86.97999573 C-46.45424977 59.48825748 -30.79191556 32.04080866 -12.28953552 11.07765198 C-10.1374818 8.63486798 -8.49980832 6.56305375 -7.08358765 3.60806274 C-4.31167689 0.42760926 -3.9579169 0.30237522 0 0 Z "
        fill="#588FE8" transform="translate(204.58543395996094,251.25828552246094)" />
    <path
        d="M0 0 C1.39798073 -0.02807487 1.39798073 -0.02807487 2.82420349 -0.05671692 C3.83982361 -0.07197418 4.85544373 -0.08723145 5.90184021 -0.10295105 C6.977155 -0.12237259 8.05246979 -0.14179413 9.16036987 -0.1618042 C19.07572746 -0.33040721 28.99213935 -0.42725471 38.90860081 -0.50287342 C45.56671599 -0.55428135 52.22219548 -0.62881218 58.87937927 -0.75920105 C65.32274868 -0.8848984 71.76424875 -0.95125683 78.20876884 -0.97646141 C80.6588831 -0.99604664 83.10892629 -1.03640054 85.55833626 -1.09832191 C105.71688252 -1.58423787 105.71688252 -1.58423787 111.23547363 2.79499817 C114.10463571 5.61425639 116.24120101 8.77162555 118.34104919 12.20100403 C119.49179799 13.72318044 120.65176002 15.2385434 121.82933044 16.74006653 C122.78071784 18.09509236 123.72237129 19.45701145 124.65354919 20.82600403 C125.40789246 21.91582581 125.40789246 21.91582581 126.17747498 23.02766418 C129.79295383 28.29177322 133.21782166 33.62855855 136.34104919 39.20100403 C136.81671326 40.00924622 137.29237732 40.8174884 137.78245544 41.65022278 C144.5866419 53.53534221 149.26627593 66.40238103 153.39573669 79.41975403 C154.070711 82.07797923 154.070711 82.07797923 155.34104919 83.20100403 C155.38168752 84.86717518 155.3837702 86.53488498 155.34104919 88.20100403 C152.37104919 87.87100403 149.40104919 87.54100403 146.34104919 87.20100403 C146.95979919 88.08787903 147.57854919 88.97475403 148.21604919 89.88850403 C156.50633101 102.81159039 155.55663886 119.6753871 155.59104919 134.45100403 C155.59272095 135.13321014 155.5943927 135.81541626 155.59611511 136.51829529 C155.59762217 146.80173098 154.78313703 156.21395826 152.34104919 166.20100403 C152.01150737 168.21912836 151.69831054 170.24000721 151.40354919 172.26350403 C150.44290645 178.2146044 148.87348664 183.9611698 147.24339294 189.75569153 C144.44934714 200.4238664 144.6018043 207.44159979 149.96604919 217.13850403 C153.26883999 221.39736584 157.22939414 224.73948247 161.34104919 228.20100403 C160.43319828 234.00613524 155.78713712 236.8171016 151.34104919 240.20100403 C147.36999909 242.86849075 143.27949697 245.34147216 139.19261169 247.82600403 C136.13112428 249.69222277 133.186289 251.66292945 130.27854919 253.76350403 C120.51163139 260.73517599 109.92276123 266.57389387 99.34104919 272.20100403 C97.97232177 272.94275281 96.60385218 273.68497749 95.23558044 274.42756653 C81.8533735 281.651917 81.8533735 281.651917 74.72386169 284.31037903 C71.91402612 285.36061265 69.16463253 286.52877939 66.40354919 287.70100403 C56.77035323 291.70361531 47.27426401 294.85409163 37.13792419 297.27131653 C34.75588341 297.85457343 32.38329618 298.47968983 30.02854919 299.16487122 C24.60989531 300.6874326 19.12870362 301.80829766 13.61204529 302.9153595 C11.6344891 303.31717751 9.66150087 303.74127219 7.68870544 304.16584778 C-3.29097063 306.3661185 -11.96166543 306.20100403 -23.65895081 306.20100403 C-23.65895081 281.78100403 -23.65895081 257.36100403 -23.65895081 232.20100403 C-19.36895081 230.55100403 -15.07895081 228.90100403 -10.65895081 227.20100403 C-1.66459403 222.07763624 4.83459133 215.10899521 8.34104919 205.20100403 C9.26276166 199.89302955 9.50503141 194.76156262 9.53392029 189.39509583 C9.54209778 188.54206879 9.55027527 187.68904175 9.55870056 186.81016541 C9.58337127 184.00685805 9.60002099 181.20360059 9.61448669 178.40022278 C9.62247221 176.95572722 9.62247221 176.95572722 9.63061905 175.48204994 C9.65726777 170.3871554 9.67667111 165.29228468 9.69114685 160.19734192 C9.70449081 155.99659985 9.73236423 151.79634296 9.7731781 147.59577942 C9.8226321 142.50425134 9.84728252 137.41316338 9.85437393 132.32140541 C9.86106085 130.38981624 9.87621566 128.45823592 9.90026474 126.5267849 C10.20956015 112.10915423 10.20956015 112.10915423 4.34104919 99.20100403 C3.89538605 98.47769394 3.4497229 97.75438385 2.99055481 97.00915527 C-1.89052499 89.22382378 -10.19344394 84.10979103 -18.87086487 81.59089661 C-20.21715973 81.19708549 -20.21715973 81.19708549 -21.59065247 80.7953186 C-22.27319092 80.59919479 -22.95572937 80.40307098 -23.65895081 80.20100403 C-23.72864018 72.23813674 -23.78185764 64.27539812 -23.81438732 56.31230068 C-23.83000455 52.61420309 -23.85116991 48.91631504 -23.88526917 45.21833801 C-23.91800449 41.64568094 -23.93583344 38.0732247 -23.94358253 34.50042915 C-23.94910076 33.14134119 -23.95987634 31.78226349 -23.97614098 30.42326164 C-24.08070444 21.31952736 -23.72095605 15.5388448 -18.40895081 8.01350403 C-13.12881113 2.61336118 -7.5287216 0.13664346 0 0 Z "
        fill="#4C7BEC" transform="translate(366.65895080566406,251.7989959716797)" />
    <path
        d="M0 0 C0.33 0 0.66 0 1 0 C1 2.64 1 5.28 1 8 C1.69859131 8.04487549 2.39718262 8.08975098 3.11694336 8.13598633 C22.65930603 9.42468775 41.09899497 11.87364046 60 17 C61.12148438 17.29648438 62.24296875 17.59296875 63.3984375 17.8984375 C70.65122514 19.95310131 77.06746243 22.82352533 83.7109375 26.31640625 C87.0837639 28.04287677 90.51422796 29.51754522 94 31 C108.22306176 37.9597604 123.85967291 47.5037251 134.15405273 59.64379883 C134.95600319 60.58718864 134.95600319 60.58718864 135.77415466 61.54963684 C136.17868362 62.02825668 136.58321259 62.50687653 137 63 C136.43438827 63.00238835 135.86877653 63.00477671 135.28602505 63.00723743 C121.5055207 63.06644607 107.72519252 63.1422211 93.94487667 63.23571491 C87.28072044 63.28042992 80.616647 63.31968377 73.95239258 63.34643555 C67.52024899 63.37245686 61.08834113 63.41285169 54.65634346 63.46318626 C52.20321143 63.47986277 49.75003861 63.49137215 47.29685783 63.49761391 C43.85903116 63.5072461 40.42180868 63.53529639 36.98413086 63.56762695 C35.46498329 63.56547432 35.46498329 63.56547432 33.91514587 63.5632782 C25.54285218 63.67452634 19.71673572 65.77587222 13 71 C8.75703894 76.50438191 7.89172521 80.32445699 7.79467773 87.14550781 C7.77473251 88.38649231 7.75478729 89.62747681 7.73423767 90.90606689 C7.71725607 92.255085 7.70037717 93.60410441 7.68359375 94.953125 C7.66301124 96.33746951 7.64201443 97.72180792 7.62062073 99.10614014 C7.56553393 102.742544 7.51606586 106.37900333 7.46777344 110.01550293 C7.41746036 113.72913525 7.36182558 117.44268744 7.30664062 121.15625 C7.19922296 128.43743206 7.09774192 135.71868094 7 143 C7.75023437 142.9690625 8.50046875 142.938125 9.2734375 142.90625 C13.43551985 143.04935885 16.50331065 144.92217102 20 147 C20.87269531 147.51304687 21.74539063 148.02609375 22.64453125 148.5546875 C31.14752213 154.09649694 37.75806067 162.274182 41 172 C41.10167239 174.79742366 41.14683419 177.57001428 41.14526367 180.36767578 C41.14862228 181.22172501 41.1519809 182.07577423 41.15544128 182.95570374 C41.16495665 185.78558805 41.16689506 188.61541317 41.16796875 191.4453125 C41.17118223 193.41486638 41.17454638 195.38442001 41.17805481 197.35397339 C41.18404846 201.48826653 41.1858946 205.62253876 41.18530273 209.75683594 C41.1852014 215.03920536 41.19882303 220.3214395 41.21607494 225.60377693 C41.2272305 229.67543139 41.22922081 233.7470536 41.22869301 237.81872177 C41.22986894 239.76504861 41.23426891 241.7113764 41.24202538 243.65768814 C41.25189181 246.39053859 41.24892053 249.12310132 41.24291992 251.85595703 C41.24853943 252.65110214 41.25415894 253.44624725 41.25994873 254.26548767 C41.19564389 265.86930692 37.66311761 275.66631168 29.8671875 284.37109375 C26.05819738 287.69399936 21.5078228 289.78303797 17 292 C15.865625 292.61875 14.73125 293.2375 13.5625 293.875 C11 295 11 295 7 295 C7 319.42 7 343.84 7 369 C21.50299376 368.4427512 21.50299376 368.4427512 35.66796875 366.4765625 C36.44336502 366.32972015 37.21876129 366.18287781 38.01765442 366.03158569 C39.61360005 365.72662664 41.20842554 365.41573958 42.80200195 365.09863281 C45.22269805 364.61801154 47.64686073 364.15932922 50.07226562 363.703125 C51.64607536 363.39969014 53.21965293 363.09504803 54.79296875 362.7890625 C55.50140427 362.65456696 56.20983978 362.52007141 56.93974304 362.38150024 C61.86179346 361.39039419 66.32682008 359.83744711 71 358 C72.57536244 357.5541427 74.15846791 357.13416292 75.75 356.75 C81.33743219 355.26681926 86.78741144 353.44567123 92.25 351.5625 C93.10174805 351.27407227 93.95349609 350.98564453 94.83105469 350.68847656 C99.94482328 348.90255738 104.34124282 346.75041651 109 344 C111.32199224 342.97394129 113.65615963 341.97511885 116 341 C118.90877226 339.69416 121.7986786 338.34930025 124.6875 337 C125.80608398 336.48566406 125.80608398 336.48566406 126.94726562 335.9609375 C130.61018947 334.24874116 133.83214702 332.5443163 137 330 C138.2981725 329.2456205 139.61178007 328.51734534 140.9375 327.8125 C150.86155179 322.36148609 160.31823449 316.18922882 169.75 309.9375 C170.62495117 309.36008057 171.49990234 308.78266113 172.40136719 308.18774414 C182.17600411 301.69377642 182.17600411 301.69377642 191 294 C190.87962886 290.99072151 190.01186344 290.01169057 187.85546875 287.88671875 C186.97503906 287.16097656 186.09460938 286.43523437 185.1875 285.6875 C180.20076848 281.35616748 175.83276846 276.87033978 175 270 C174.76697262 263.81792064 175.53385821 258.33812641 176.875 252.3125 C177.13603516 251.07016602 177.13603516 251.07016602 177.40234375 249.80273438 C178.09784078 246.58541664 178.77047123 243.55260133 180.03515625 240.5078125 C181.52185919 236.64358867 181.96832777 232.64625516 182.5625 228.5625 C182.8136603 226.89711403 183.06495925 225.23174896 183.31640625 223.56640625 C183.42412354 222.83365479 183.53184082 222.10090332 183.64282227 221.34594727 C183.90739311 219.60824304 184.21061051 217.87632704 184.53442383 216.14868164 C185.03828975 212.74104726 185.12955044 209.49895227 185.1328125 206.0546875 C185.13376923 205.40355988 185.13472595 204.75243225 185.13571167 204.08157349 C185.13638875 202.70835269 185.13456757 201.33512861 185.13037109 199.96191406 C185.1250685 197.90161591 185.13030501 195.841541 185.13671875 193.78125 C185.28830705 173.57432351 185.28830705 173.57432351 178.90234375 154.7265625 C178 153 178 153 177 150 C183.75 149.875 183.75 149.875 186 151 C186.33 150.34 186.66 149.68 187 149 C193.41714573 170.89928859 193.41714573 170.89928859 193 182 C193.66 182 194.32 182 195 182 C195.75629529 186.90339129 196.27124983 191.77192621 196.55441284 196.72702026 C196.59654022 197.46145823 196.6386676 198.1958962 196.68207157 198.95258987 C197.14517236 207.75580635 197.14026638 216.55468596 197.12939453 225.36767578 C197.1307542 227.24870334 197.13253728 229.12973064 197.13470459 231.01075745 C197.13923368 236.09188324 197.1375022 241.17298851 197.1343255 246.25411463 C197.13175239 251.68128156 197.13415533 257.108447 197.13571167 262.53561401 C197.13752998 271.72003482 197.13514725 280.9044476 197.13037109 290.08886719 C197.12562306 299.32096897 197.12546959 308.55305455 197.13037109 317.78515625 C197.15452555 364.56086615 197.10092598 411.33365443 196.5860877 458.10698462 C196.55487123 460.97530528 196.52522355 463.8436388 196.49585342 466.71197891 C196.44989262 471.13859334 196.39845724 475.56510903 196.3421998 479.99160433 C196.32228916 481.60190415 196.30388991 483.21222346 196.28710318 484.82255888 C196.26382242 487.00483219 196.23447183 489.18693672 196.20333862 491.36911011 C196.18817137 492.58563704 196.17300411 493.80216396 196.15737724 495.05555534 C196 498 196 498 195 501 C194.77674186 503.05893621 194.59294241 505.12233653 194.4375 507.1875 C194.35371094 508.27417969 194.26992188 509.36085938 194.18359375 510.48046875 C194.12300781 511.31191406 194.06242187 512.14335938 194 513 C193.67 513 193.34 513 193 513 C193 490.56 193 468.12 193 445 C188.03015751 449.07436097 188.03015751 449.07436097 183.8125 453.5625 C180.25534664 457.74036469 176.55664159 461.7709213 172.81958008 465.78735352 C170.85578107 467.91184932 168.99159293 470.01164649 167.296875 472.359375 C166.86890625 472.90078125 166.4409375 473.4421875 166 474 C165.34 474 164.68 474 164 474 C163.77441406 474.55429687 163.54882812 475.10859375 163.31640625 475.6796875 C161.61133714 478.68506155 159.42200049 480.72987003 156.9375 483.125 C152.3428709 487.19017462 152.3428709 487.19017462 150.86196899 492.79945374 C150.85222549 494.59073952 150.85222549 494.59073952 150.84228516 496.41821289 C150.83720444 497.07704468 150.83212372 497.73587646 150.82688904 498.41467285 C150.81617802 499.84806547 150.80756071 501.28147488 150.80076981 502.71489143 C150.78897181 504.99014589 150.76951277 507.26521128 150.74765015 509.54039001 C150.68609315 516.01050427 150.63216201 522.48060286 150.59863281 528.95092773 C150.57757247 532.90860424 150.54217074 536.8659418 150.49787521 540.82342339 C150.48379472 542.32592183 150.4750109 543.82848031 150.47182083 545.33104134 C150.44444311 557.00059717 148.7867332 565.55423942 142.8125 575.5625 C140.3175551 579.82717471 137.91309807 584.08153916 135.80859375 588.5546875 C135.28785278 589.65574829 135.28785278 589.65574829 134.7565918 590.77905273 C134.09822362 592.19079977 133.45447792 593.60948233 132.82739258 595.03540039 C130.60392283 599.77308747 130.60392283 599.77308747 127.328125 601.00390625 C125 601 125 601 124 600 C123.73417126 594.7720347 124.02846859 590.92882852 126 586 C126.66 586 127.32 586 128 586 C128.40412109 584.92685547 128.40412109 584.92685547 128.81640625 583.83203125 C130.01011435 580.97579901 131.40784042 578.37705412 132.9375 575.6875 C139.75110432 563.2870717 141.28404334 551.90611005 141.23828125 537.8125 C141.24431751 536.46068556 141.25193219 535.10887736 141.2610321 533.75708008 C141.29777254 528.06946991 141.31672111 522.38206214 141.30541992 516.69433594 C141.29952461 513.19412629 141.31802835 509.69471776 141.35130882 506.19467163 C141.36297056 504.23958756 141.34802473 502.28440174 141.33235168 500.3293457 C141.45322641 489.25483962 144.75781762 481.52727291 152.5 473.6875 C152.96019531 473.20216797 153.42039062 472.71683594 153.89453125 472.21679688 C156.11473168 469.88714995 158.38863887 467.61533262 160.67578125 465.3515625 C162.48732014 463.51871139 164.11031726 461.71530638 165.6875 459.6875 C166.450625 458.800625 167.21375 457.91375 168 457 C168.66 457 169.32 457 170 457 C170.28875 456.401875 170.5775 455.80375 170.875 455.1875 C172 453 172 453 174 450 C174.66 450 175.32 450 176 450 C176.309375 449.20335937 176.309375 449.20335937 176.625 448.390625 C178.57961192 444.99226564 181.22123717 442.48944072 184 439.75 C184.5465625 439.19570313 185.093125 438.64140625 185.65625 438.0703125 C189.7466133 434 189.7466133 434 192 434 C191.67 396.05 191.34 358.1 191 319 C189.02 320.65 187.04 322.3 185 324 C183.5265457 324.95875451 182.02696206 325.87898643 180.5 326.75 C176.32678989 329.19010786 172.24344724 331.74593879 168.1875 334.375 C165.7928391 335.91849191 163.39649075 337.45935127 161 339 C159.93652344 339.68449219 158.87304688 340.36898438 157.77734375 341.07421875 C150.09432337 345.92013866 142.2023231 350.03011911 134.04394531 353.99121094 C132.02126665 354.98950385 130.02098912 356.02275583 128.0234375 357.0703125 C119.19382433 361.67233475 110.30788687 365.23597976 100.86132812 368.36816406 C98.35943221 369.21744353 95.90192268 370.17317208 93.4375 371.125 C87.67537464 373.24277961 81.75990335 374.64815828 75.796875 376.0703125 C71.36529998 377.15541009 66.99082835 378.39782198 62.6237793 379.71875 C55.01737007 381.93132042 47.40707459 383.0933621 39.5625 384.125 C37.08439444 384.45915525 34.60651819 384.79501678 32.12890625 385.1328125 C30.50577515 385.34768311 30.50577515 385.34768311 28.84985352 385.56689453 C26.13767652 385.92375689 26.13767652 385.92375689 24.09059143 386.51799011 C21.89248687 387.02478839 19.95436877 387.13359557 17.70068359 387.14526367 C16.4368837 387.15483345 16.4368837 387.15483345 15.14755249 387.16459656 C14.24034454 387.16570938 13.3331366 387.1668222 12.3984375 387.16796875 C11.44796539 387.17129715 10.49749329 387.17462555 9.51821899 387.17805481 C7.49913007 387.18311919 5.48003277 387.18546329 3.4609375 387.18530273 C0.43474577 387.18745746 -2.59106182 387.20552882 -5.6171875 387.22460938 C-22.21793534 387.27512749 -38.03021121 386.10654995 -54.1875 382.125 C-55.30406982 381.85743896 -56.42063965 381.58987793 -57.57104492 381.31420898 C-60.7172232 380.55516517 -63.8590104 379.78018816 -67 379 C-67.75442383 378.81679199 -68.50884766 378.63358398 -69.28613281 378.44482422 C-85.58219029 374.47775525 -103.53761918 369.67742849 -118 361 C-119.45224039 360.42195137 -120.91166284 359.86185117 -122.375 359.3125 C-134.6863832 354.48629209 -145.93591037 347.37138456 -157.03027344 340.26123047 C-158.9974857 339.00160992 -160.97072226 337.75192205 -162.9453125 336.50390625 C-174.25869916 329.31788831 -174.25869916 329.31788831 -178 326 C-178 325.34 -178 324.68 -178 324 C-178.56203125 323.88269531 -179.1240625 323.76539063 -179.703125 323.64453125 C-184.65072345 322.25617454 -188.14529482 320.36883603 -191 316 C-192.17139898 309.43624704 -191.54721873 302.60871856 -191 296 C-182.22909425 300.94818798 -174.18777529 306.74196155 -166.40625 313.12890625 C-164.25472215 314.80192872 -162.22570827 316.06741131 -159.8125 317.3125 C-156.40831701 319.14379316 -153.30927067 321.15890855 -150.1875 323.4375 C-145.61757888 326.71391312 -140.86919068 329.1672804 -135.80859375 331.59765625 C-133.39641754 332.8020669 -131.18746243 334.0855308 -128.9375 335.5625 C-124.22177334 338.61500357 -119.13671505 340.75825442 -114 343 C-113.29359375 343.32742188 -112.5871875 343.65484375 -111.859375 343.9921875 C-105.03002406 347.14620072 -97.96643323 349.7004139 -90.91113281 352.29492188 C-89.20634222 352.92387375 -87.50524543 353.56281713 -85.8046875 354.203125 C-84.87914062 354.54859375 -83.95359375 354.8940625 -83 355.25 C-82.21625 355.54390625 -81.4325 355.8378125 -80.625 356.140625 C-77.80206894 357.06479886 -74.95140796 357.79398504 -72.06591797 358.49560547 C-70.1442734 358.9647756 -68.22994334 359.46363096 -66.31640625 359.96484375 C-56.60668924 362.48068094 -46.89771594 364.39444634 -37 366 C-36.19530273 366.13293457 -35.39060547 366.26586914 -34.56152344 366.40283203 C-32.06261521 366.81509835 -29.56282475 367.22141887 -27.0625 367.625 C-26.30606201 367.74818604 -25.54962402 367.87137207 -24.77026367 367.99829102 C-19.17326039 368.88292933 -13.66272254 369.43372775 -8 370 C-8 345.25 -8 320.5 -8 295 C-10.64 294.67 -13.28 294.34 -16 294 C-26.12073136 290.57248487 -33.20567513 283.14533869 -38.87890625 274.3203125 C-40.70211956 270.54683269 -40.8678429 267.16294878 -41 263 C-41.66 263 -42.32 263 -43 263 C-43.04641935 252.05556031 -43.08191795 241.1111442 -43.10362434 230.16662598 C-43.11404434 225.08419304 -43.12817092 220.00182766 -43.15087891 214.91943359 C-43.17267094 210.01111185 -43.18458204 205.10285493 -43.18975449 200.19448853 C-43.19343883 198.32547994 -43.20063338 196.45647475 -43.21146011 194.5874939 C-43.2260596 191.96189818 -43.22797442 189.33656752 -43.22705078 186.7109375 C-43.23424133 185.94488693 -43.24143188 185.17883636 -43.24884033 184.38957214 C-43.2043391 172.63513281 -38.82822896 161.60172618 -30.6875 153.0625 C-25.11777918 147.92193689 -19.97451863 144.22815576 -12.34179688 143.4453125 C-11.52932495 143.36039551 -10.71685303 143.27547852 -9.87976074 143.18798828 C-8.94927917 143.09493408 -8.94927917 143.09493408 -8 143 C-7.99167057 135.05393347 -8.01572909 127.10888525 -8.0802784 119.16310883 C-8.10925792 115.47282675 -8.12739508 111.78317625 -8.12011719 108.09277344 C-8.11349289 104.52611571 -8.13618065 100.96070255 -8.17855453 97.39430237 C-8.19499432 95.38268318 -8.18166792 93.37089119 -8.16775513 91.35925293 C-8.29282128 83.42942828 -9.2494914 78.62252368 -15 73 C-15.80824219 72.17628906 -16.61648438 71.35257812 -17.44921875 70.50390625 C-18.18785156 69.86324219 -18.92648437 69.22257812 -19.6875 68.5625 C-20.43386719 67.90378906 -21.18023437 67.24507813 -21.94921875 66.56640625 C-25.05541595 64.19386324 -27.63685477 63.87285113 -31.42289734 63.84178162 C-32.32733582 63.8319928 -33.23177429 63.82220398 -34.16362 63.81211853 C-35.15336319 63.80636307 -36.14310638 63.8006076 -37.1628418 63.79467773 C-38.20691193 63.78477814 -39.25098206 63.77487854 -40.32669067 63.76467896 C-43.78417682 63.73304415 -47.24167671 63.7082986 -50.69921875 63.68359375 C-53.09390117 63.66302594 -55.48857995 63.64202952 -57.883255 63.62062073 C-64.19118297 63.56538222 -70.4991438 63.51598074 -76.80712891 63.46777344 C-83.24189179 63.41757144 -89.67660685 63.36187858 -96.11132812 63.30664062 C-108.74084431 63.19903727 -121.3704013 63.09741071 -134 63 C-133.06188912 61.71707101 -132.1192789 60.43743133 -131.17480469 59.15917969 C-130.65037781 58.44622742 -130.12595093 57.73327515 -129.58563232 56.99871826 C-127.43464507 54.28735987 -125.01931774 52.31599895 -122.25 50.25 C-121.70851318 49.84515381 -121.16702637 49.44030762 -120.60913086 49.02319336 C-111.23457911 42.11267526 -101.54238056 35.00143366 -91 30 C-90.05640625 29.505 -89.1128125 29.01 -88.140625 28.5 C-82.66833624 25.66032583 -77.42941141 23.2724668 -71.44921875 21.73828125 C-68.82995202 21.00405812 -68.82995202 21.00405812 -65.79296875 19.578125 C-61.52764962 17.70749184 -57.13098798 16.57839312 -52.625 15.4375 C-51.82578125 15.22931641 -51.0265625 15.02113281 -50.203125 14.80664062 C-35.91956706 11.12018837 -21.82973586 8.50291388 -7 9 C-6.67 8.01 -6.34 7.02 -6 6 C-4.02 6.33 -2.04 6.66 0 7 C0 4.69 0 2.38 0 0 Z "
        fill="#4A434C" transform="translate(336,189)" />
    <path
        d="M0 0 C17.70852939 0.0067802 30.05152663 4.67875035 44.1875 15.25 C45.239375 16.03375 46.29125 16.8175 47.375 17.625 C60.52192984 29.89546785 64.20589375 43.87974174 65.1875 61.25 C65.4029368 67.57860026 65.45680893 73.90817117 65.48266602 80.23999023 C65.49421191 82.20327954 65.51470464 84.16653683 65.54418945 86.12963867 C65.83164841 105.35727079 63.22953265 120.38319775 49.640625 134.89453125 C43.06102921 141.21220046 35.43683009 145.49808246 27.1875 149.25 C26.32769531 149.71792969 25.46789062 150.18585938 24.58203125 150.66796875 C11.7493522 156.85051453 -6.36087062 156.43985177 -19.8125 152.25 C-36.79527608 146.25607903 -51.19097594 136.6817444 -59.3203125 120.19140625 C-65.15084877 106.84780753 -64.10124718 93.11881964 -64.16259766 78.80126953 C-64.17589569 76.02749356 -64.20368796 73.25446043 -64.24462891 70.48095703 C-64.30403971 66.45332893 -64.32132874 62.4264817 -64.3359375 58.3984375 C-64.35860687 57.17506683 -64.38127625 55.95169617 -64.40463257 54.69125366 C-64.37242123 41.38114078 -59.98779186 30.86381683 -50.8125 21.25 C-41.44447026 12.25 -41.44447026 12.25 -36.8125 12.25 C-36.8125 11.59 -36.8125 10.93 -36.8125 10.25 C-34.91795176 9.28912864 -33.02180419 8.33141031 -31.125 7.375 C-30.06925781 6.84132813 -29.01351562 6.30765625 -27.92578125 5.7578125 C-23.78889861 3.75425328 -20.16378575 2.10021074 -15.5625 1.6875 C-1.1243146 0.00304504 -1.1243146 0.00304504 0 0 Z "
        fill="#01A0FA" transform="translate(336.8125,627.75)" />
    <path
        d="M0 0 C77.55 0 155.1 0 235 0 C220.41881412 24.30197647 190.22283834 35.98052799 164 43 C163.0821875 43.24991699 162.164375 43.49983398 161.21875 43.75732422 C126.28713848 52.93293676 85.68981268 49.83448697 51.875 37.9375 C50.84890625 37.58623047 49.8228125 37.23496094 48.765625 36.87304688 C47.78851562 36.53208984 46.81140625 36.19113281 45.8046875 35.83984375 C44.48960205 35.38146118 44.48960205 35.38146118 43.14794922 34.91381836 C41 34 41 34 39 32 C37.865625 31.608125 36.73125 31.21625 35.5625 30.8125 C22.18834645 25.92069249 9.33912635 14.44268471 1 3 C0.67 2.01 0.34 1.02 0 0 Z "
        fill="#508DE9" transform="translate(669,730)" />
    <path
        d="M0 0 C4.45939651 5.7335098 5.63893112 11.68025583 5.52807617 18.88085938 C5.52873329 20.02377945 5.52873329 20.02377945 5.52940369 21.18978882 C5.52733323 23.67888071 5.50408616 26.16727751 5.48046875 28.65625 C5.47486656 30.39359164 5.47059941 32.13093804 5.46760559 33.86828613 C5.4562058 38.41887729 5.42678105 42.96917665 5.39349365 47.51965332 C5.36268733 52.17191624 5.34907777 56.82422676 5.33398438 61.4765625 C5.30190623 70.58866917 5.25076939 79.70056022 5.1875 88.8125 C8.4875 88.8125 11.7875 88.8125 15.1875 88.8125 C15.42984375 87.72710938 15.6721875 86.64171875 15.921875 85.5234375 C16.25977534 84.07797493 16.59835313 82.63267061 16.9375 81.1875 C17.09476563 80.47464844 17.25203125 79.76179687 17.4140625 79.02734375 C19.23950517 71.37452639 22.8828484 66.40964179 29.1875 61.8125 C34.7901294 59.99820657 40.37764439 60.23937906 45.9375 62 C51.84462587 65.29435866 55.26753106 69.31894887 57.1875 75.8125 C57.56677966 79.03912167 57.53884805 82.21973295 57.48046875 85.46484375 C57.47622391 86.36497696 57.47197906 87.26511017 57.46760559 88.19252014 C57.45091816 91.04532786 57.41328497 93.89740863 57.375 96.75 C57.3599403 98.69334912 57.34625415 100.63670939 57.33398438 102.58007812 C57.30360895 107.32471878 57.24486982 112.06780326 57.1875 116.8125 C44.6475 116.8125 32.1075 116.8125 19.1875 116.8125 C18.5275 114.8325 17.8675 112.8525 17.1875 110.8125 C13.5575 110.4825 9.9275 110.1525 6.1875 109.8125 C6.1875 112.1225 6.1875 114.4325 6.1875 116.8125 C-6.3525 116.8125 -18.8925 116.8125 -31.8125 116.8125 C-32.59387176 113.68701297 -32.9445744 111.56710211 -32.97312927 108.44380188 C-32.9831749 107.57623764 -32.99322052 106.7086734 -33.00357056 105.81481934 C-33.00940155 104.87086304 -33.01523254 103.92690674 -33.02124023 102.9543457 C-33.03102402 101.95384689 -33.0408078 100.95334808 -33.05088806 99.92253113 C-33.08080417 96.61112797 -33.10221745 93.2997651 -33.12109375 89.98828125 C-33.12766558 88.85579641 -33.1342374 87.72331158 -33.14100838 86.55650902 C-33.17358588 80.56152978 -33.19804037 74.5665682 -33.2175293 68.5715332 C-33.23533818 63.61586603 -33.27015528 58.6607683 -33.32006836 53.70532227 C-33.3803208 47.71599174 -33.41101209 41.72718898 -33.42070198 35.73756981 C-33.42924897 33.45904588 -33.4480482 31.18053576 -33.4774456 28.90218544 C-33.51645562 25.70671087 -33.51738176 22.51328406 -33.50952148 19.31762695 C-33.52952209 18.38379181 -33.54952271 17.44995667 -33.57012939 16.48782349 C-33.49321074 9.4915028 -31.28225952 5.14830526 -26.8125 -0.1875 C-18.87746644 -7.74467481 -8.30260113 -6.45757866 0 0 Z "
        fill="#E4DDE8" transform="translate(796.8125,612.1875)" />
    <path
        d="M0 0 C2.0996083 0.00502803 4.19921777 0.00958862 6.29882812 0.01367188 C11.38674832 0.02456733 16.47461081 0.04175915 21.5625 0.0625 C21.5625 0.7225 21.5625 1.3825 21.5625 2.0625 C22.51125 2.10375 23.46 2.145 24.4375 2.1875 C37.60736243 4.12190635 49.68141913 17.75220003 59.10546875 26.39453125 C59.97816406 27.19246094 60.85085938 27.99039063 61.75 28.8125 C62.54792969 29.54984375 63.34585938 30.2871875 64.16796875 31.046875 C66.52085589 33.02744558 68.91715663 34.50797435 71.5625 36.0625 C73.22916667 37.72916667 74.89583333 39.39583333 76.5625 41.0625 C90.69878756 53.0462165 106.5372663 63.74747563 123.5625 71.0625 C123.5625 71.7225 123.5625 72.3825 123.5625 73.0625 C124.119375 73.18109375 124.67625 73.2996875 125.25 73.421875 C127.84807147 74.14161102 130.12272166 75.16522328 132.5625 76.3125 C140.91838899 80.16221717 149.20951314 83.8960777 158.11328125 86.2890625 C161.36702183 87.31655952 164.42918597 88.71385675 167.5625 90.0625 C176.05026868 93.15550045 184.69865397 95.74474937 193.375 98.25 C194.23367676 98.49983643 195.09235352 98.74967285 195.97705078 99.00708008 C200.16422386 100.19841807 204.32431421 101.24725207 208.6015625 102.0625 C213.55547638 103.01281105 218.3115586 104.37906076 223.125 105.875 C224.87883252 106.40909635 226.63274007 106.94294635 228.38671875 107.4765625 C230.1120382 108.00501564 231.8373006 108.53365507 233.5625 109.0625 C241.66474787 111.5412314 249.68402598 113.95642269 258 115.625 C263.87913282 116.82098359 269.084219 118.65894956 274.5625 121.0625 C276.22681021 121.73502787 277.89351997 122.4016461 279.5625 123.0625 C280.34165771 123.37614502 281.12081543 123.68979004 281.92358398 124.01293945 C283.58132939 124.67226478 285.24460561 125.31801533 286.9152832 125.94384766 C292.92337658 128.23000989 298.32591504 130.99564449 303.75 134.4375 C304.97058105 135.21154175 304.97058105 135.21154175 306.21582031 136.0012207 C334.27270642 154.36318632 347.23891829 181.1916308 354.5625 213.0625 C358.08624637 230.88996123 357.83315512 249.10060487 357.8125 267.1875 C357.81133682 268.90995438 357.81133682 268.90995438 357.81015015 270.66720581 C357.74833599 302.32085023 357.74833599 302.32085023 356.09156799 313.13694763 C354.40693347 324.24346485 354.23275811 335.14918889 354.18359375 346.36328125 C354.16738252 348.37730182 354.15019886 350.39131477 354.13209534 352.40531921 C354.08682101 357.65685515 354.05178631 362.90840173 354.01989746 368.16003418 C353.96760345 376.60952675 353.90295411 385.05890892 353.83168221 393.50826073 C353.8088574 396.45425258 353.79259505 399.40023003 353.77696228 402.3462677 C353.76356502 404.13750376 353.74995105 405.92873822 353.73608398 407.7199707 C353.73347061 408.54013168 353.73085724 409.36029266 353.72816467 410.20530701 C353.67615637 415.83518727 353.67615637 415.83518727 352.5625 418.0625 C349.9225 418.0625 347.2825 418.0625 344.5625 418.0625 C344.67012122 405.40572911 344.78277882 392.74901399 344.90183926 380.09234524 C344.95696798 374.21514657 345.01037172 368.33794283 345.05981445 362.46069336 C345.10760647 356.78724511 345.15995426 351.1138554 345.21544075 345.44047737 C345.2357972 343.27760339 345.2545211 341.11471339 345.27157402 338.95181084 C345.29576705 335.91890566 345.32580063 332.88610969 345.35717773 329.85327148 C345.3629332 328.96206604 345.36868866 328.0708606 345.37461853 327.15264893 C345.4308731 322.35859602 345.76477464 317.79165942 346.5625 313.0625 C347.2225 313.0625 347.8825 313.0625 348.5625 313.0625 C348.55089844 312.24910156 348.53929687 311.43570312 348.52734375 310.59765625 C348.4773683 304.25077356 348.59864215 298.01817963 349.0625 291.6875 C351.22392959 259.37336113 353.77794937 216.13998744 338.0625 186.875 C336.62910124 184.14773688 335.3697602 181.56688338 334.25 178.6875 C323.48024508 155.55247092 302.22886829 141.15284853 279.5625 131.0625 C276.20904103 129.88860243 272.85147636 128.85895669 269.43359375 127.890625 C267.12151088 127.22373851 264.96965439 126.47561822 262.75 125.5625 C257.96282259 123.67664223 252.92990743 122.59960932 247.93237305 121.41992188 C242.66160516 120.16160516 242.66160516 120.16160516 241.5625 119.0625 C240.21447112 118.78127856 238.85825265 118.53925336 237.5 118.3125 C232.88062605 117.43324416 228.46522326 116.14030513 224 114.6875 C218.25748734 112.8254714 212.51333691 111.26806895 206.625 109.9375 C201.50918232 108.78074597 196.51289143 107.52473567 191.56640625 105.76953125 C186.26724226 103.89984571 180.82647185 102.42690943 175.4296875 100.8671875 C174.32077148 100.54500244 174.32077148 100.54500244 173.18945312 100.21630859 C171.72800939 99.79200826 170.26580881 99.37030291 168.80273438 98.95166016 C163.95889175 97.54396079 159.26306372 95.88887655 154.5625 94.0625 C153.85899414 93.79501953 153.15548828 93.52753906 152.43066406 93.25195312 C119.77222728 80.78734041 91.39653655 64.38353949 64.5625 42.0625 C62.70863548 40.56212659 60.85446546 39.06213059 59 37.5625 C55.41039693 34.6306509 51.92617399 31.62103037 48.5 28.5 C43.68977547 24.12498626 38.69747795 20.04863543 33.5625 16.0625 C32.94632813 15.55460938 32.33015625 15.04671875 31.6953125 14.5234375 C27.27908008 11.04336495 23.09268266 9.82642914 17.5625 9.0625 C16.95559326 8.97709961 16.34868652 8.89169922 15.72338867 8.80371094 C-15.526178 4.8275946 -56.27111744 6.4412622 -82.375 26.296875 C-96.38788298 38.39132757 -100.84160743 52.25003388 -103.4375 70.0625 C-105.4175 70.0625 -107.3975 70.0625 -109.4375 70.0625 C-110.16534595 53.34900047 -106.01700387 40.21384392 -95.40234375 27.18359375 C-82.81659614 13.59699146 -66.1075998 6.84069111 -48.4375 3 C-47.68855469 2.82662109 -46.93960938 2.65324219 -46.16796875 2.47460938 C-31.06565621 -0.79380155 -15.3603328 -0.0645341 0 0 Z "
        fill="#E5DFE5" transform="translate(439.4375,125.9375)" />
    <path
        d="M0 0 C6.09152502 -0.14051008 12.0792137 0.28041188 18.12890625 0.93359375 C19.17401367 1.03861206 19.17401367 1.03861206 20.24023438 1.14575195 C39.70517031 3.4589428 57.56273938 17.2912623 69.37890625 32.12109375 C71.01000737 34.70555315 72.24705685 37.28844392 73.37890625 40.12109375 C74.18328125 41.85359375 74.18328125 41.85359375 75.00390625 43.62109375 C80.44441966 57.46967335 79.56542973 72.64988825 79.56420898 87.29638672 C79.56640708 90.24721467 79.58466013 93.19767472 79.60351562 96.1484375 C79.65622955 114.46855546 79.65622955 114.46855546 77.37890625 123.12109375 C76.71890625 123.12109375 76.05890625 123.12109375 75.37890625 123.12109375 C75.33765625 124.06984375 75.29640625 125.01859375 75.25390625 125.99609375 C73.57070282 137.17256451 63.55351959 147.31983643 54.85546875 153.86328125 C47.16996707 159.3366088 39.38163823 163.19967741 30.37890625 166.12109375 C29.05826172 166.57935547 29.05826172 166.57935547 27.7109375 167.046875 C20.0356519 169.68877592 13.52058741 170.3330929 5.37890625 170.37109375 C4.30511719 170.39171875 3.23132813 170.41234375 2.125 170.43359375 C-17.65214232 170.52879058 -35.34786219 162.25532691 -49.49609375 148.68359375 C-59.71374788 137.79347975 -67.70366245 123.13763781 -67.76635742 107.80859375 C-67.77273727 106.74648682 -67.77911713 105.68437988 -67.78569031 104.59008789 C-67.78735954 102.87293579 -67.78735954 102.87293579 -67.7890625 101.12109375 C-67.7923909 99.93443115 -67.7957193 98.74776855 -67.79914856 97.52514648 C-67.80421324 95.01009508 -67.80655703 92.49503696 -67.80639648 89.97998047 C-67.80856953 86.16362127 -67.82669318 82.34755754 -67.84570312 78.53125 C-67.84863996 76.08203223 -67.85062281 73.6328131 -67.8515625 71.18359375 C-67.85874802 70.05501953 -67.86593353 68.92644531 -67.87333679 67.76367188 C-67.83084568 52.74671505 -65.3316889 40.76511836 -55.62109375 29.12109375 C-54.64849609 27.93 -54.64849609 27.93 -53.65625 26.71484375 C-41.67664707 12.67726201 -25.55805729 2.78406726 -7.05859375 0.37109375 C-4.70667952 0.19672036 -2.3558603 0.10884004 0 0 Z M-6.62109375 9.12109375 C-7.71421875 9.20359375 -8.80734375 9.28609375 -9.93359375 9.37109375 C-17.53506205 10.22179959 -25.34036372 13.82677376 -31.62109375 18.12109375 C-31.62109375 18.78109375 -31.62109375 19.44109375 -31.62109375 20.12109375 C-32.20375 20.23453125 -32.78640625 20.34796875 -33.38671875 20.46484375 C-41.87174737 22.95695006 -49.16582141 31.8869473 -53.421875 39.2265625 C-56.74351489 45.73507408 -58.74486095 50.64488501 -58.75048828 57.97192383 C-58.75364044 59.15027298 -58.7567926 60.32862213 -58.76004028 61.54267883 C-58.75801605 62.81250107 -58.75599182 64.0823233 -58.75390625 65.390625 C-58.75486298 66.70012619 -58.7558197 68.00962738 -58.75680542 69.35881042 C-58.75827846 72.13025086 -58.75614151 74.90165903 -58.75146484 77.6730957 C-58.74578454 81.21020248 -58.74903825 84.74723309 -58.75503731 88.28433704 C-58.75954095 91.67393896 -58.75637729 95.06352092 -58.75390625 98.453125 C-58.75593048 99.71687454 -58.75795471 100.98062408 -58.76004028 102.28266907 C-58.71491271 119.28776173 -53.49010238 132.12597527 -41.9609375 144.87890625 C-26.78611087 159.42039287 -7.60484425 162.98627023 12.58203125 162.66015625 C22.22858865 162.17701865 30.05245369 158.78542954 38.37890625 154.12109375 C39.45398438 153.53585937 40.5290625 152.950625 41.63671875 152.34765625 C54.61169732 144.64940991 63.90993043 134.64526517 68.37890625 120.12109375 C68.71664062 119.12271484 69.054375 118.12433594 69.40234375 117.09570312 C70.68896344 112.55441026 70.66636962 108.13749191 70.64453125 103.4453125 C70.64740143 102.05926567 70.64740143 102.05926567 70.65032959 100.6452179 C70.65168627 98.69112882 70.64802602 96.73703057 70.63964844 94.78295898 C70.62907652 91.85573919 70.63949106 88.92915228 70.65234375 86.00195312 C70.65946847 76.97316312 70.458246 68.03562491 69.4765625 59.0546875 C69.35797882 57.96881599 69.35797882 57.96881599 69.23699951 56.86100769 C68.53280885 51.13913922 67.10238847 46.18979677 64.37890625 41.12109375 C64.00765625 40.43015625 63.63640625 39.73921875 63.25390625 39.02734375 C57.94432725 29.94516914 51.17144349 23.77541408 42.37890625 18.12109375 C41.30382812 17.40759766 41.30382812 17.40759766 40.20703125 16.6796875 C29.0798072 9.45561762 18.38183402 7.77497194 5.31640625 7.93359375 C4.27291016 7.93423828 3.22941406 7.93488281 2.15429688 7.93554688 C-2.57727253 7.51926716 -2.57727253 7.51926716 -6.62109375 9.12109375 Z "
        fill="#70382F" transform="translate(331.62109375,619.87890625)" />
    <path
        d="M0 0 C5.71126747 5.3562928 8.2138136 10.62511467 8.52869129 18.45592594 C8.59853921 22.86959658 8.5516187 27.27793996 8.48828125 31.69140625 C8.47894392 33.60667494 8.47183216 35.52195565 8.46684265 37.4372406 C8.44784528 42.45327316 8.39880775 47.46857003 8.34332275 52.48431396 C8.29197288 57.61248831 8.26929512 62.74078272 8.24414062 67.86914062 C8.19068143 77.91308183 8.10545747 87.95647949 8 98 C2.76728431 98.07403712 -2.46512801 98.12854783 -7.69824219 98.16479492 C-9.47922067 98.17990173 -11.26016184 98.20038835 -13.04101562 98.22631836 C-15.59774978 98.26261943 -18.1539931 98.27970688 -20.7109375 98.29296875 C-21.50994476 98.30845261 -22.30895203 98.32393646 -23.13217163 98.33988953 C-25.37646484 98.34057617 -25.37646484 98.34057617 -29 98 C-31.41560926 94.37658612 -31.2825282 91.73573314 -31.25878906 87.55029297 C-31.2622937 86.79377945 -31.26579834 86.03726593 -31.26940918 85.25782776 C-31.27822248 82.75252137 -31.27237529 80.24749686 -31.265625 77.7421875 C-31.26697261 75.99683579 -31.26891394 74.25148446 -31.27142334 72.50613403 C-31.27437475 68.84259478 -31.27007953 65.17915294 -31.26074219 61.515625 C-31.24939823 56.8385731 -31.25587474 52.16175204 -31.26788712 47.48470879 C-31.27514859 43.87627456 -31.27279732 40.2678941 -31.26763153 36.65945816 C-31.26630423 34.9364227 -31.26791028 33.21338224 -31.27259064 31.49035263 C-31.32064509 8.8078557 -31.32064509 8.8078557 -25 1 C-18.64697369 -4.7574301 -7.09218478 -4.54025074 0 0 Z "
        fill="#E4DDE8" transform="translate(749,631)" />
    <path
        d="M0 0 C77.55 0 155.1 0 235 0 C220.41881412 24.30197647 190.22283834 35.98052799 164 43 C163.0821875 43.24991699 162.164375 43.49983398 161.21875 43.75732422 C126.28713848 52.93293676 85.68981268 49.83448697 51.875 37.9375 C50.84890625 37.58623047 49.8228125 37.23496094 48.765625 36.87304688 C47.78851562 36.53208984 46.81140625 36.19113281 45.8046875 35.83984375 C44.48960205 35.38146118 44.48960205 35.38146118 43.14794922 34.91381836 C41 34 41 34 39 32 C37.865625 31.608125 36.73125 31.21625 35.5625 30.8125 C22.18834645 25.92069249 9.33912635 14.44268471 1 3 C0.67 2.01 0.34 1.02 0 0 Z M12 4 C18.30612368 16.61224737 37.47822462 24.75149506 50.1875 29.4375 C51.78802738 29.96941179 53.39160173 30.49238494 55 31 C56.4540625 31.5259375 56.4540625 31.5259375 57.9375 32.0625 C98.94470142 44.61572493 147.40800775 44.65294333 187 27 C187.67160156 26.71769531 188.34320312 26.43539062 189.03515625 26.14453125 C200.85290974 21.08609097 213.45650364 15.38843495 224 8 C224 7.34 224 6.68 224 6 C158.66 6 93.32 6 26 6 C26 5.34 26 4.68 26 4 C21.38 4 16.76 4 12 4 Z "
        fill="#4B4344" transform="translate(669,730)" />
    <path
        d="M0 0 C3.13084099 0.57764438 4.77743006 1.40030044 7.015625 3.65234375 C7.54414063 4.18150391 8.07265625 4.71066406 8.6171875 5.25585938 C9.15601563 5.81080078 9.69484375 6.36574219 10.25 6.9375 C10.80429688 7.48857422 11.35859375 8.03964844 11.9296875 8.60742188 C16 12.73287408 16 12.73287408 16 15 C16.56847656 15.22945312 17.13695312 15.45890625 17.72265625 15.6953125 C20.59355712 17.34004816 22.28866356 19.36492069 24.4375 21.875 C27.41376936 25.34300081 30.41756705 28.17237464 34 31 C35.07634045 32.15616475 36.1197123 33.3440492 37.125 34.5625 C40.65529738 38.70981838 44.45916268 42.52009626 48.35595703 46.31860352 C52.1451425 50.03905244 53.11907974 51.72956418 53.17358398 56.99365234 C53.18707382 58.03588959 53.20056366 59.07812683 53.21446228 60.15194702 C53.22490067 61.28516388 53.23533905 62.41838074 53.24609375 63.5859375 C53.27906436 65.98568029 53.3122754 68.38541978 53.34570312 70.78515625 C53.39288284 74.56784528 53.43724402 78.35052418 53.47680664 82.13330078 C53.51688302 85.78433066 53.56837349 89.43507122 53.62109375 93.0859375 C53.6295079 94.19891205 53.63792206 95.3118866 53.64659119 96.45858765 C53.95628849 116.44057596 58.50567303 140.58995187 71.875 156.1875 C73 158 73 158 72.875 160.5625 C71.95952916 163.1127402 71.06699293 164.2924841 69 166 C63.52189675 163.84788801 61.12671693 159.53144247 58.78125 154.375 C58.0104669 152.58776852 57.25047508 150.79585359 56.5 149 C56.10417725 148.06172363 55.70835449 147.12344727 55.30053711 146.15673828 C47.71684298 127.91882513 45.02677823 110.44084627 44.82421875 90.7578125 C44.81223953 89.73955887 44.80026031 88.72130524 44.78791809 87.67219543 C44.73907002 83.40612355 44.69169379 79.14035483 44.67407227 74.87402344 C44.65860763 71.7306571 44.61846195 68.58838827 44.57421875 65.4453125 C44.57612717 64.48585724 44.57803558 63.52640198 44.58000183 62.53787231 C44.44954941 55.4042163 42.60453423 51.7425228 37.640625 46.515625 C36.85171875 45.76796875 36.0628125 45.0203125 35.25 44.25 C33.79631569 42.87134456 32.36908683 41.46269961 31 40 C31 39.34 31 38.68 31 38 C30.42419189 37.74943848 29.84838379 37.49887695 29.25512695 37.24072266 C26.69361407 35.83143301 24.9781505 34.22091237 22.91796875 32.1484375 C22.15033203 31.37886719 21.38269531 30.60929688 20.59179688 29.81640625 C19.40166992 28.60791016 19.40166992 28.60791016 18.1875 27.375 C17.40568359 26.59253906 16.62386719 25.81007813 15.81835938 25.00390625 C2 11.08164944 2 11.08164944 2 8 C1.34 8 0.68 8 0 8 C0 5.36 0 2.72 0 0 Z "
        fill="#7C2B2E" transform="translate(144,622)" />
    <path
        d="M0 0 C0 4.24276111 -1.84578131 5.70584319 -4.640625 8.7578125 C-18.43956395 21.87137368 -38.16127439 30.47528164 -56.5 34.6875 C-57.80904297 35.00557617 -57.80904297 35.00557617 -59.14453125 35.33007812 C-65.07616907 36.72291456 -70.92608382 37.54086804 -77 38 C-76.125 33.125 -76.125 33.125 -75 32 C-73.11066705 31.65034118 -71.21298288 31.3453517 -69.3125 31.0625 C-65.00387465 30.37311994 -61.10888167 29.48619124 -57 28 C-55.2719282 27.55819523 -53.54261204 27.1212464 -51.8125 26.6875 C-45.87098426 25.09127189 -40.5376784 22.64015252 -35 20 C-33.56375768 19.3928496 -32.12630456 18.78855329 -30.6875 18.1875 C-24.18889842 15.31874795 -18.12768823 11.57332161 -12 8 C-10.75148619 7.29654814 -9.50279042 6.59341913 -8.25390625 5.890625 C-5.24215796 4.14070163 -2.65121389 2.24951482 0 0 Z "
        fill="#5B3734" transform="translate(437,833)" />
    <path
        d="M0 0 C1.79133978 -0.05391993 3.58313899 -0.09275571 5.375 -0.125 C6.37273437 -0.14820313 7.37046875 -0.17140625 8.3984375 -0.1953125 C11 0 11 0 13 2 C13 3.65 13 5.3 13 7 C25.21 7 37.42 7 50 7 C50 7.33 50 7.66 50 8 C-10.72 8 -71.44 8 -134 8 C-134 7.67 -134 7.34 -134 7 C-89.78 7 -45.56 7 0 7 C0 4.69 0 2.38 0 0 Z "
        fill="#687791" transform="translate(803,722)" />
    <path
        d="M0 0 C2.8990531 0.08418303 3.75595876 0.12593524 6.0625 2 C7.29568878 4.92882336 7.2770758 7.22788821 7.0625 10.375 C6.0725 10.705 5.0825 11.035 4.0625 11.375 C4.0625 12.035 4.0625 12.695 4.0625 13.375 C-3.20075581 13.7322093 -3.20075581 13.7322093 -6 12.375 C-7.52841804 9.11437484 -6.89940651 5.78145088 -5.9375 2.375 C-3.9375 0.375 -3.9375 0.375 0 0 Z "
        fill="#922D25" transform="translate(336.9375,697.625)" />
    <path
        d="M0 0 C1.79133978 -0.05391993 3.58313899 -0.09275571 5.375 -0.125 C6.37273438 -0.14820313 7.37046875 -0.17140625 8.3984375 -0.1953125 C11 0 11 0 13 2 C13 3.65 13 5.3 13 7 C8.71 7 4.42 7 0 7 C0 4.69 0 2.38 0 0 Z "
        fill="#6EAAFD" transform="translate(803,722)" />
    <path
        d="M0 0 C2.8990531 0.08418303 3.75595876 0.12593524 6.0625 2 C7.29568878 4.92882336 7.2770758 7.22788821 7.0625 10.375 C6.0725 10.87 6.0725 10.87 5.0625 11.375 C4.7325 8.735 4.4025 6.095 4.0625 3.375 C1.7525 3.045 -0.5575 2.715 -2.9375 2.375 C-3.5975 5.345 -4.2575 8.315 -4.9375 11.375 C-5.5975 11.045 -6.2575 10.715 -6.9375 10.375 C-5.98866279 0.57034884 -5.98866279 0.57034884 0 0 Z "
        fill="#733137" transform="translate(336.9375,697.625)" />
    <path
        d="M0 0 C0.66 0.33 1.32 0.66 2 1 C-2.95 5.95 -7.9 10.9 -13 16 C-13.66 15.67 -14.32 15.34 -15 15 C-13.44221619 13.2456027 -11.87905295 11.49653989 -10.3125 9.75 C-9.44238281 8.77546875 -8.57226562 7.8009375 -7.67578125 6.796875 C-5.25206689 4.26347429 -2.7912151 2.11227089 0 0 Z "
        fill="#63393C" transform="translate(290,635)" />
    <path
        d="M0 0 C0.66 0 1.32 0 2 0 C1.5359375 1.051875 1.5359375 1.051875 1.0625 2.125 C-0.03302678 5.08936657 -0.56422992 7.87698108 -1 11 C-1.66 10.67 -2.32 10.34 -3 10 C-2.25 2.25 -2.25 2.25 0 0 Z "
        fill="#3A3F67" transform="translate(333,698)" />
    <path
        d="M0 0 C0 3.93169105 -1.39419615 5.16427228 -4 8 C-4.66 8 -5.32 8 -6 8 C-5.65120368 4.74456771 -4.97866739 3.98126893 -2.4375 1.75 C-1.633125 1.1725 -0.82875 0.595 0 0 Z "
        fill="#713A33" transform="translate(437,833)" />
    <path
        d="M0 0 C0.66 0.33 1.32 0.66 2 1 C-0.64 3.64 -3.28 6.28 -6 9 C-6.33 8.34 -6.66 7.68 -7 7 C-4.66666667 4.66666667 -2.33333333 2.33333333 0 0 Z "
        fill="#C8CFE9" transform="translate(728,629)" />
</svg>