<svg width="74" height="65" viewBox="0 0 74 65" fill="none" xmlns="http://www.w3.org/2000/svg">
    <g clip-path="url(#clip0_1822_732)">
        <path
            d="M66.9551 30.4688H38.5938V2.10488C38.5938 0.959131 39.3682 0 40.625 0C56.3291 0 69.0625 12.7334 69.0625 28.4375C69.0625 29.5801 68.0977 30.4688 66.9551 30.4688ZM70.8906 36.5625C72.0586 36.5625 72.998 37.5527 72.8457 38.7207C71.8682 45.8174 68.4404 52.127 63.4639 56.7861C62.7021 57.3955 61.5088 57.4463 60.7725 56.71L40.625 36.5625H70.8906Z"
            fill="black" />
        <path
            d="M66.9551 30.4688H38.5938V2.10488C38.5938 0.959131 39.3682 0 40.625 0C56.3291 0 69.0625 12.7334 69.0625 28.4375C69.0625 29.5801 68.0977 30.4688 66.9551 30.4688ZM70.8906 36.5625C72.0586 36.5625 72.998 37.5527 72.8457 38.7207C71.8682 45.8174 68.4404 52.127 63.4639 56.7861C62.7021 57.3955 61.5088 57.4463 60.7725 56.71L40.625 36.5625H70.8906Z"
            fill="url(#paint0_linear_1822_732)" />
        <g opacity="0.4">
            <path
                d="M4.0625 34.5291C4.0625 19.1297 15.501 6.38867 30.2275 4.34599C31.5098 4.18603 32.5 5.12167 32.5 6.29599V36.5603L52.3682 56.4285C53.2187 57.2791 53.1553 58.6756 52.1777 59.3738C47.2012 62.9158 41.1074 64.9979 34.5312 64.9979C17.71 64.9979 4.0625 51.3631 4.0625 34.5291Z"
                fill="black" />
            <path
                d="M4.0625 34.5291C4.0625 19.1297 15.501 6.38867 30.2275 4.34599C31.5098 4.18603 32.5 5.12167 32.5 6.29599V36.5603L52.3682 56.4285C53.2187 57.2791 53.1553 58.6756 52.1777 59.3738C47.2012 62.9158 41.1074 64.9979 34.5312 64.9979C17.71 64.9979 4.0625 51.3631 4.0625 34.5291Z"
                fill="url(#paint1_linear_1822_732)" />
        </g>
    </g>
    <defs>
        <linearGradient id="paint0_linear_1822_732" x1="35.0987" y1="11.5823" x2="83.5892" y2="18.7349"
            gradientUnits="userSpaceOnUse">
            <stop stop-color="#00b7fd" />
            <stop offset="0.244879" stop-color="#152037" />
            <stop offset="0.479167" stop-color="#4d80eb" />
            <stop offset="0.696647" stop-color="#5065e8" />
            <stop offset="0.925431" stop-color="#6765d9" />
        </linearGradient>
        <linearGradient id="paint1_linear_1822_732" x1="-0.924743" y1="16.6017" x2="67.0912" y2="30.1116"
            gradientUnits="userSpaceOnUse">
            <stop stop-color="#00b7fd" />
            <stop offset="0.244879" stop-color="#152037" />
            <stop offset="0.479167" stop-color="#4d80eb" />
            <stop offset="0.696647" stop-color="#5065e8" />
            <stop offset="0.925431" stop-color="#6765d9" />
        </linearGradient>
        <clipPath id="clip0_1822_732">
            <rect width="73.125" height="65" fill="white" />
        </clipPath>
    </defs>
</svg>