<svg width="82" height="66" viewBox="0 0 82 66" fill="none" xmlns="http://www.w3.org/2000/svg">
    <g clip-path="url(#clip0_1822_739)">
        <path
            d="M77.3877 16.2812H53.8127C51.263 16.2812 49.2002 18.4594 49.2002 21.0091V60.9841C49.2002 63.5337 51.263 65.5966 53.8127 65.5966H77.3877C79.9374 65.5966 82.0002 63.5337 82.0002 60.9841V21.0091C82.0002 18.4594 79.9374 16.2812 77.3877 16.2812ZM73.8002 57.3966H57.4002V24.5966H73.8002V57.3966Z"
            fill="black" />
        <path
            d="M77.3877 16.2812H53.8127C51.263 16.2812 49.2002 18.4594 49.2002 21.0091V60.9841C49.2002 63.5337 51.263 65.5966 53.8127 65.5966H77.3877C79.9374 65.5966 82.0002 63.5337 82.0002 60.9841V21.0091C82.0002 18.4594 79.9374 16.2812 77.3877 16.2812ZM73.8002 57.3966H57.4002V24.5966H73.8002V57.3966Z"
            fill="url(#paint0_linear_1822_739)" />
        <g opacity="0.4">
            <path
                d="M57.4 24.6V57.4H73.8V24.6H57.4ZM16.4 8.2H57.4V12.3H65.6V6.15C65.6 2.75469 62.8453 0.015375 59.4654 0H14.3372C10.9547 0.0160156 8.2 2.75469 8.2 6.15V36.9H2.05C0.912891 36.9 0 37.8097 0 38.95V41C0.0160156 45.5164 3.66822 49.1846 8.18462 49.2H45.1V36.9H16.4V8.2Z"
                fill="black" />
            <path
                d="M57.4 24.6V57.4H73.8V24.6H57.4ZM16.4 8.2H57.4V12.3H65.6V6.15C65.6 2.75469 62.8453 0.015375 59.4654 0H14.3372C10.9547 0.0160156 8.2 2.75469 8.2 6.15V36.9H2.05C0.912891 36.9 0 37.8097 0 38.95V41C0.0160156 45.5164 3.66822 49.1846 8.18462 49.2H45.1V36.9H16.4V8.2Z"
                fill="url(#paint1_linear_1822_739)" />
        </g>
    </g>
    <defs>
        <linearGradient id="paint0_linear_1822_739" x1="45.8549" y1="26.2578" x2="92.037" y2="33.8275"
            gradientUnits="userSpaceOnUse">
            <stop stop-color="#00b7fd" />
            <stop offset="0.244879" stop-color="#152037" />
            <stop offset="0.479167" stop-color="#4d80eb" />
            <stop offset="0.696647" stop-color="#5065e8" />
            <stop offset="0.925431" stop-color="#6765d9" />
        </linearGradient>
        <linearGradient id="paint1_linear_1822_739" x1="-7.52687" y1="11.6121" x2="89.4394" y2="42.3361"
            gradientUnits="userSpaceOnUse">
            <stop stop-color="#00b7fd" />
            <stop offset="0.244879" stop-color="#152037" />
            <stop offset="0.479167" stop-color="#4d80eb" />
            <stop offset="0.696647" stop-color="#5065e8" />
            <stop offset="0.925431" stop-color="#6765d9" />
        </linearGradient>
        <clipPath id="clip0_1822_739">
            <rect width="82" height="65.6" fill="white" />
        </clipPath>
    </defs>
</svg>