<svg width="64" height="64" viewBox="0 0 64 64" fill="none" xmlns="http://www.w3.org/2000/svg">
    <g clip-path="url(#clip0_1817_497)">
        <path
            d="M34.2595 2.01416C35.2331 3.72012 35.0297 5.85622 33.7509 7.34712L31.4695 10.018C29.9873 11.7327 29.9728 14.2756 31.4259 16.0194L33.4022 18.3734C34.1869 19.318 34.2595 20.6694 33.5766 21.7011C32.8791 22.7328 31.5712 23.1833 30.3942 22.7909L26.8922 21.672C25.9912 21.3233 24.8869 21.4105 23.9278 21.89L23.0559 22.3114C21.7481 22.9798 21.1233 24.4911 21.5883 25.8861C21.8062 26.5691 22.2858 27.1503 22.9106 27.4991L27.9239 30.3762C29.3334 31.1755 30.9319 31.5969 32.4141 31.5969H38.8078C40.6533 31.5969 42.4406 32.338 43.7484 33.6458L44.3006 34.198C45.6084 35.5058 46.3495 37.2931 46.3495 39.1386V40.3302C46.3495 42.8441 45.0126 45.1545 42.833 46.3897L41.6559 47.0727C39.4617 48.3223 37.8633 50.4294 37.253 52.8852L36.8461 54.5127C36.2503 56.7505 34.4484 58.7412 32.0944 59.4097C29.9147 60.0345 27.6187 58.407 27.6187 56.1402V50.473C27.6187 48.8745 26.8486 47.4214 25.2937 46.7094C24.0005 45.9973 22.9687 44.5442 22.9687 42.9458V37.1478C22.9687 34.5467 21.3848 32.2653 18.7547 31.5533L10.1086 29.0539C7.98993 28.4436 6.15173 27.1067 4.9282 25.2612L1.77637 20.5386C6.30285 8.00394 18.3042 -0.953125 32.2687 -0.953125C32.4577 -0.953125 32.5158 -0.953125 32.5594 -0.953125L34.2595 2.01416ZM60.968 15.9903C63.5109 20.6258 64.9495 25.9442 64.9495 31.5969C64.9495 33.3987 64.6734 35.157 64.5281 36.8862L57.8583 34.663C56.4633 34.198 55.3734 33.1081 54.9084 31.7131L52.38 24.1278C51.6098 21.8028 52.7869 19.2598 55.0683 18.3444L60.968 15.9903Z"
            fill="black" />
        <path
            d="M34.2595 2.01416C35.2331 3.72012 35.0297 5.85622 33.7509 7.34712L31.4695 10.018C29.9873 11.7327 29.9728 14.2756 31.4259 16.0194L33.4022 18.3734C34.1869 19.318 34.2595 20.6694 33.5766 21.7011C32.8791 22.7328 31.5712 23.1833 30.3942 22.7909L26.8922 21.672C25.9912 21.3233 24.8869 21.4105 23.9278 21.89L23.0559 22.3114C21.7481 22.9798 21.1233 24.4911 21.5883 25.8861C21.8062 26.5691 22.2858 27.1503 22.9106 27.4991L27.9239 30.3762C29.3334 31.1755 30.9319 31.5969 32.4141 31.5969H38.8078C40.6533 31.5969 42.4406 32.338 43.7484 33.6458L44.3006 34.198C45.6084 35.5058 46.3495 37.2931 46.3495 39.1386V40.3302C46.3495 42.8441 45.0126 45.1545 42.833 46.3897L41.6559 47.0727C39.4617 48.3223 37.8633 50.4294 37.253 52.8852L36.8461 54.5127C36.2503 56.7505 34.4484 58.7412 32.0944 59.4097C29.9147 60.0345 27.6187 58.407 27.6187 56.1402V50.473C27.6187 48.8745 26.8486 47.4214 25.2937 46.7094C24.0005 45.9973 22.9687 44.5442 22.9687 42.9458V37.1478C22.9687 34.5467 21.3848 32.2653 18.7547 31.5533L10.1086 29.0539C7.98993 28.4436 6.15173 27.1067 4.9282 25.2612L1.77637 20.5386C6.30285 8.00394 18.3042 -0.953125 32.2687 -0.953125C32.4577 -0.953125 32.5158 -0.953125 32.5594 -0.953125L34.2595 2.01416ZM60.968 15.9903C63.5109 20.6258 64.9495 25.9442 64.9495 31.5969C64.9495 33.3987 64.6734 35.157 64.5281 36.8862L57.8583 34.663C56.4633 34.198 55.3734 33.1081 54.9084 31.7131L52.38 24.1278C51.6098 21.8028 52.7869 19.2598 55.0683 18.3444L60.968 15.9903Z"
            fill="url(#paint0_linear_1817_497)" />
        <g opacity="0.4">
            <path
                d="M1.77645 20.5386L4.92828 25.2612C6.15181 27.1067 7.99002 28.4436 10.1087 29.0539L18.7548 31.5533C21.3849 32.2653 22.9688 34.5467 22.9688 37.1478V42.9458C22.9688 44.5442 24.0005 45.9973 25.2938 46.5786C26.8487 47.4214 27.6188 48.8745 27.6188 50.473V56.1402C27.6188 58.407 29.9148 60.0345 32.0945 59.4097C34.4485 58.7413 36.2504 56.7505 36.8462 54.5127L37.253 52.8852C37.8634 50.4294 39.4618 48.3223 41.656 47.0581L42.833 46.3897C45.0127 45.1545 46.3496 42.8441 46.3496 40.3302V39.1386C46.3496 37.2786 45.6085 35.5058 44.3007 34.198L43.7485 33.6458C42.4407 32.338 40.6534 31.4661 38.8079 31.4661H32.4141C30.932 31.4661 29.3335 31.1755 27.924 30.3763L22.9107 27.4991C22.2859 27.1503 21.8063 26.5691 21.5884 25.8861C21.1234 24.4911 21.7482 22.9653 23.056 22.3114L23.9279 21.89C24.887 21.4105 25.9913 21.3233 26.8923 21.672L30.3943 22.7909C31.5713 23.1833 32.8791 22.7328 33.5766 21.7011C34.2596 20.6694 34.187 19.318 33.4023 18.3734L31.426 16.0194C29.9729 14.2756 29.9874 11.7327 31.4696 10.018L33.751 7.34713C35.0298 5.85477 35.2332 3.72012 34.2596 2.01416L32.5595 -0.953125C44.8093 -0.892094 55.4607 5.93614 60.968 15.9903L55.0684 18.3444C52.787 19.2598 51.6099 21.7883 52.3801 24.1278L54.9085 31.7131C55.3735 33.1081 56.4634 34.198 57.8584 34.663L64.5282 36.8862C61.9998 52.3475 48.5729 64.0161 32.3996 64.0161C14.4245 64.0161 -0.150391 49.572 -0.150391 31.4661C-0.150391 27.717 0.529672 23.9825 1.77645 20.5386Z"
                fill="black" />
            <path
                d="M1.77645 20.5386L4.92828 25.2612C6.15181 27.1067 7.99002 28.4436 10.1087 29.0539L18.7548 31.5533C21.3849 32.2653 22.9688 34.5467 22.9688 37.1478V42.9458C22.9688 44.5442 24.0005 45.9973 25.2938 46.5786C26.8487 47.4214 27.6188 48.8745 27.6188 50.473V56.1402C27.6188 58.407 29.9148 60.0345 32.0945 59.4097C34.4485 58.7413 36.2504 56.7505 36.8462 54.5127L37.253 52.8852C37.8634 50.4294 39.4618 48.3223 41.656 47.0581L42.833 46.3897C45.0127 45.1545 46.3496 42.8441 46.3496 40.3302V39.1386C46.3496 37.2786 45.6085 35.5058 44.3007 34.198L43.7485 33.6458C42.4407 32.338 40.6534 31.4661 38.8079 31.4661H32.4141C30.932 31.4661 29.3335 31.1755 27.924 30.3763L22.9107 27.4991C22.2859 27.1503 21.8063 26.5691 21.5884 25.8861C21.1234 24.4911 21.7482 22.9653 23.056 22.3114L23.9279 21.89C24.887 21.4105 25.9913 21.3233 26.8923 21.672L30.3943 22.7909C31.5713 23.1833 32.8791 22.7328 33.5766 21.7011C34.2596 20.6694 34.187 19.318 33.4023 18.3734L31.426 16.0194C29.9729 14.2756 29.9874 11.7327 31.4696 10.018L33.751 7.34713C35.0298 5.85477 35.2332 3.72012 34.2596 2.01416L32.5595 -0.953125C44.8093 -0.892094 55.4607 5.93614 60.968 15.9903L55.0684 18.3444C52.787 19.2598 51.6099 21.7883 52.3801 24.1278L54.9085 31.7131C55.3735 33.1081 56.4634 34.198 57.8584 34.663L64.5282 36.8862C61.9998 52.3475 48.5729 64.0161 32.3996 64.0161C14.4245 64.0161 -0.150391 49.572 -0.150391 31.4661C-0.150391 27.717 0.529672 23.9825 1.77645 20.5386Z"
                fill="url(#paint1_linear_1817_497)" />
        </g>
    </g>
    <defs>
        <linearGradient id="paint0_linear_1817_497" x1="-4.66667" y1="11.2856" x2="80.9971" y2="33.3303"
            gradientUnits="userSpaceOnUse">
            <stop stop-color="#00b7fd" />
            <stop offset="0.244879" stop-color="#152037" />
            <stop offset="0.479167" stop-color="#4d80eb" />
            <stop offset="0.696647" stop-color="#5065e8" />
            <stop offset="0.925431" stop-color="#6765d9" />
        </linearGradient>
        <linearGradient id="paint1_linear_1817_497" x1="-6.74696" y1="12.1902" x2="81.4573" y2="33.8301"
            gradientUnits="userSpaceOnUse">
            <stop stop-color="#00b7fd" />
            <stop offset="0.244879" stop-color="#152037" />
            <stop offset="0.479167" stop-color="#4d80eb" />
            <stop offset="0.696647" stop-color="#5065e8" />
            <stop offset="0.925431" stop-color="#6765d9" />
        </linearGradient>
        <clipPath id="clip0_1817_497">
            <rect width="64" height="64" fill="white" />
        </clipPath>
    </defs>
</svg>