<svg width="50" height="66" viewBox="0 0 50 66" fill="none" xmlns="http://www.w3.org/2000/svg">
    <g clip-path="url(#clip0_1822_715)">
        <path
            d="M33.0001 0V16.5H49.5001L33.0001 0ZM19.8646 33.232C18.8576 32.225 17.2259 32.225 16.2191 33.232L10.0316 39.4195C9.02461 40.4265 9.02461 42.0621 10.0316 43.0689L16.2191 49.2564C16.7322 49.7707 17.3896 50.0156 18.047 50.0156C18.7044 50.0156 19.3657 49.7658 19.8698 49.2623C20.8768 48.2553 20.8768 46.6197 19.8698 45.613L15.5076 41.25L19.8723 36.8878C20.7669 35.8746 20.7669 34.2504 19.8646 33.232ZM33.2708 33.232C32.2638 32.225 30.6321 32.225 29.6254 33.232C28.6186 34.239 28.6184 35.8746 29.6254 36.8814L33.9927 41.25L29.628 45.6122C28.6209 46.6192 28.6209 48.2548 29.628 49.2615C30.1384 49.7707 30.7958 50.0156 31.4533 50.0156C32.1107 50.0156 32.772 49.7658 33.276 49.2623L39.4635 43.0748C40.4705 42.0678 40.4705 40.4322 39.4635 39.4255L33.2708 33.232Z"
            fill="black" />
        <path
            d="M33.0001 0V16.5H49.5001L33.0001 0ZM19.8646 33.232C18.8576 32.225 17.2259 32.225 16.2191 33.232L10.0316 39.4195C9.02461 40.4265 9.02461 42.0621 10.0316 43.0689L16.2191 49.2564C16.7322 49.7707 17.3896 50.0156 18.047 50.0156C18.7044 50.0156 19.3657 49.7658 19.8698 49.2623C20.8768 48.2553 20.8768 46.6197 19.8698 45.613L15.5076 41.25L19.8723 36.8878C20.7669 35.8746 20.7669 34.2504 19.8646 33.232ZM33.2708 33.232C32.2638 32.225 30.6321 32.225 29.6254 33.232C28.6186 34.239 28.6184 35.8746 29.6254 36.8814L33.9927 41.25L29.628 45.6122C28.6209 46.6192 28.6209 48.2548 29.628 49.2615C30.1384 49.7707 30.7958 50.0156 31.4533 50.0156C32.1107 50.0156 32.772 49.7658 33.276 49.2623L39.4635 43.0748C40.4705 42.0678 40.4705 40.4322 39.4635 39.4255L33.2708 33.232Z"
            fill="url(#paint0_linear_1822_715)" />
        <g opacity="0.4">
            <path
                d="M33 16.5V0H6.1875C2.7702 0 0 2.7702 0 6.1875V59.8125C0 63.2285 2.7702 66 6.1875 66H43.3125C46.7298 66 49.5 63.2298 49.5 59.8125V16.5H33ZM19.8645 45.607C20.8715 46.614 20.8715 48.2496 19.8645 49.2564C19.3617 49.7707 18.7043 50.0156 18.0469 50.0156C17.3895 50.0156 16.7282 49.7658 16.2241 49.2623L10.0366 43.0748C9.02963 42.0678 9.02963 40.4322 10.0366 39.4255L16.2241 33.238C17.2312 32.2309 18.8629 32.2309 19.8696 33.238C20.8764 34.245 20.8766 35.8805 19.8696 36.8873L15.5074 41.25L19.8645 45.607ZM39.4582 43.0805L33.2707 49.268C32.768 49.7707 32.1105 50.0156 31.4531 50.0156C30.7957 50.0156 30.1344 49.7658 29.6304 49.2623C28.6234 48.2553 28.6234 46.6197 29.6304 45.613L33.9926 41.25L29.6278 36.8878C28.6208 35.8808 28.6208 34.2452 29.6278 33.2385C30.6348 32.2317 32.2665 32.2315 33.2733 33.2385L39.4608 39.426C40.3605 40.4379 40.3605 42.0621 39.4582 43.0805Z"
                fill="black" />
            <path
                d="M33 16.5V0H6.1875C2.7702 0 0 2.7702 0 6.1875V59.8125C0 63.2285 2.7702 66 6.1875 66H43.3125C46.7298 66 49.5 63.2298 49.5 59.8125V16.5H33ZM19.8645 45.607C20.8715 46.614 20.8715 48.2496 19.8645 49.2564C19.3617 49.7707 18.7043 50.0156 18.0469 50.0156C17.3895 50.0156 16.7282 49.7658 16.2241 49.2623L10.0366 43.0748C9.02963 42.0678 9.02963 40.4322 10.0366 39.4255L16.2241 33.238C17.2312 32.2309 18.8629 32.2309 19.8696 33.238C20.8764 34.245 20.8766 35.8805 19.8696 36.8873L15.5074 41.25L19.8645 45.607ZM39.4582 43.0805L33.2707 49.268C32.768 49.7707 32.1105 50.0156 31.4531 50.0156C30.7957 50.0156 30.1344 49.7658 29.6304 49.2623C28.6234 48.2553 28.6234 46.6197 29.6304 45.613L33.9926 41.25L29.6278 36.8878C28.6208 35.8808 28.6208 34.2452 29.6278 33.2385C30.6348 32.2317 32.2665 32.2315 33.2733 33.2385L39.4608 39.426C40.3605 40.4379 40.3605 42.0621 39.4582 43.0805Z"
                fill="url(#paint1_linear_1822_715)" />
        </g>
    </g>
    <defs>
        <linearGradient id="paint0_linear_1822_715" x1="5.17394" y1="10.1182" x2="61.1321" y2="21.2088"
            gradientUnits="userSpaceOnUse">
            <stop stop-color="#00b7fd" />
            <stop offset="0.244879" stop-color="#152037" />
            <stop offset="0.479167" stop-color="#4d80eb" />
            <stop offset="0.696647" stop-color="#5065e8" />
            <stop offset="0.925431" stop-color="#6765d9" />
        </linearGradient>
        <linearGradient id="paint1_linear_1822_715" x1="-5.04851" y1="13.3519" x2="64.1552" y2="26.1428"
            gradientUnits="userSpaceOnUse">
            <stop stop-color="#00b7fd" />
            <stop offset="0.244879" stop-color="#152037" />
            <stop offset="0.479167" stop-color="#4d80eb" />
            <stop offset="0.696647" stop-color="#5065e8" />
            <stop offset="0.925431" stop-color="#6765d9" />
        </linearGradient>
        <clipPath id="clip0_1822_715">
            <rect width="49.5" height="66" fill="white" />
        </clipPath>
    </defs>
</svg>