<svg width="68" height="53" viewBox="0 0 68 53" fill="none" xmlns="http://www.w3.org/2000/svg">
    <path
        d="M4.76563 48.1515C-1.58854 41.7939 -1.58854 31.4866 4.76563 25.1402L17.4011 12.4024C23.6574 6.14712 34.0547 6.14712 40.3111 12.4024C45.9374 18.0286 46.7701 26.9969 42.1453 33.467L42.0215 33.6471C40.8625 35.2562 38.612 35.6388 37.0029 34.4798C35.3825 33.3208 34.9999 31.0703 36.159 29.4612L36.2827 29.2811C38.8596 25.6691 38.4545 20.7292 35.315 17.5898C31.7817 14.0565 26.0317 14.0565 22.4872 17.5898L9.86188 30.2263C6.31622 33.6696 6.31622 39.5096 9.86188 43.0542C12.9901 46.1936 17.9412 46.5987 21.542 44.0219L21.722 43.7968C23.3424 42.7391 25.5929 43.1104 26.7406 44.7308C27.8996 46.3511 27.5283 48.6016 25.9079 49.7607L25.7279 49.8844C19.1564 54.5092 10.3907 53.7665 4.76563 48.1515Z"
        fill="black" />
    <path
        d="M4.76563 48.1515C-1.58854 41.7939 -1.58854 31.4866 4.76563 25.1402L17.4011 12.4024C23.6574 6.14712 34.0547 6.14712 40.3111 12.4024C45.9374 18.0286 46.7701 26.9969 42.1453 33.467L42.0215 33.6471C40.8625 35.2562 38.612 35.6388 37.0029 34.4798C35.3825 33.3208 34.9999 31.0703 36.159 29.4612L36.2827 29.2811C38.8596 25.6691 38.4545 20.7292 35.315 17.5898C31.7817 14.0565 26.0317 14.0565 22.4872 17.5898L9.86188 30.2263C6.31622 33.6696 6.31622 39.5096 9.86188 43.0542C12.9901 46.1936 17.9412 46.5987 21.542 44.0219L21.722 43.7968C23.3424 42.7391 25.5929 43.1104 26.7406 44.7308C27.8996 46.3511 27.5283 48.6016 25.9079 49.7607L25.7279 49.8844C19.1564 54.5092 10.3907 53.7665 4.76563 48.1515Z"
        fill="url(#paint0_linear_1822_728)" />
    <g opacity="0.4">
        <path
            d="M63.2323 4.76646C69.5899 11.1196 69.5899 21.4269 63.2323 27.7733L50.5957 40.4099C44.2381 46.7675 33.942 46.7675 27.5844 40.4099C21.9581 34.7836 21.2267 25.9166 25.8515 19.4465L25.9753 19.2664C27.033 17.6573 29.2835 17.2747 30.9939 18.4337C32.6142 19.4915 32.9968 21.742 31.8378 23.4523L31.714 23.6324C29.1372 27.1432 29.5423 32.1843 32.6817 35.3237C36.215 38.857 41.9651 38.857 45.5096 35.3237L58.1349 22.6872C61.6794 19.1426 61.6794 13.3026 58.1349 9.85934C55.0067 6.72327 50.0556 6.31368 46.4548 8.89163L46.2748 9.0154C44.6544 10.1744 42.4039 9.7018 41.2561 8.18047C40.0971 6.56236 40.4685 4.31299 42.0888 3.15735L42.2689 3.03133C48.7391 -1.59221 57.606 -0.85866 63.2323 4.76646Z"
            fill="black" />
        <path
            d="M63.2323 4.76646C69.5899 11.1196 69.5899 21.4269 63.2323 27.7733L50.5957 40.4099C44.2381 46.7675 33.942 46.7675 27.5844 40.4099C21.9581 34.7836 21.2267 25.9166 25.8515 19.4465L25.9753 19.2664C27.033 17.6573 29.2835 17.2747 30.9939 18.4337C32.6142 19.4915 32.9968 21.742 31.8378 23.4523L31.714 23.6324C29.1372 27.1432 29.5423 32.1843 32.6817 35.3237C36.215 38.857 41.9651 38.857 45.5096 35.3237L58.1349 22.6872C61.6794 19.1426 61.6794 13.3026 58.1349 9.85934C55.0067 6.72327 50.0556 6.31368 46.4548 8.89163L46.2748 9.0154C44.6544 10.1744 42.4039 9.7018 41.2561 8.18047C40.0971 6.56236 40.4685 4.31299 42.0888 3.15735L42.2689 3.03133C48.7391 -1.59221 57.606 -0.85866 63.2323 4.76646Z"
            fill="url(#paint1_linear_1822_728)" />
    </g>
    <defs>
        <linearGradient id="paint0_linear_1822_728" x1="-4.60355" y1="16.8555" x2="56.9303" y2="31.9979"
            gradientUnits="userSpaceOnUse">
            <stop stop-color="#00b7fd" />
            <stop offset="0.244879" stop-color="#152037" />
            <stop offset="0.479167" stop-color="#4d80eb" />
            <stop offset="0.696647" stop-color="#5065e8" />
            <stop offset="0.925431" stop-color="#6765d9" />
        </linearGradient>
        <linearGradient id="paint1_linear_1822_728" x1="18.2102" y1="9.13957" x2="79.7944" y2="24.3178"
            gradientUnits="userSpaceOnUse">
            <stop stop-color="#00b7fd" />
            <stop offset="0.244879" stop-color="#152037" />
            <stop offset="0.479167" stop-color="#4d80eb" />
            <stop offset="0.696647" stop-color="#5065e8" />
            <stop offset="0.925431" stop-color="#6765d9" />
        </linearGradient>
    </defs>
</svg>